<?xml version="1.0" encoding="UTF-8"?>
<svg width="813px" height="334px" viewBox="0 0 813 334" version="1.1" xmlns="http://www.w3.org/2000/svg" xmlns:xlink="http://www.w3.org/1999/xlink">
    <!-- Generator: Sketch 53.2 (72643) - https://sketchapp.com -->
    <title>Artboard Copy</title>
    <desc>Created with Sketch.</desc>
    <g id="Artboard-Copy" stroke="none" stroke-width="1" fill="none" fill-rule="evenodd">
        <g id="logo-libe" transform="translate(0.000000, 20.000000)">
            <polyline id="Path" fill="#E91845" fill-rule="nonzero" points="0 146.604251 406.5 0 813 146.604251 406.5 295 0 146.604251"></polyline>
            <polygon id="Path" stroke="#434242" stroke-width="0.11" points="648 226 674 226 674 240 648 240"></polygon>
            <path d="M651.561042,76.5103025 L642.27618,68.690925 L625.503527,63.2775099 L625.503527,91.2468216 L615.919154,91.2468216 L615.919154,86.434897 C615.919154,67.1871986 603.040152,61.1722929 587.166034,63.2775099 L585.967987,63.2775099 C573.088985,63.2775099 557.81389,69.8939062 557.81389,88.8408593 L557.81389,91.2468216 L546.432447,91.2468216 L546.432447,34.105217 L520.973956,34.105217 L520.973956,44.3305568 L509.892024,44.3305568 L509.892024,37.4134152 L485.931091,46.4357738 L485.931091,63.5782552 L479.341834,63.5782552 L479.341834,75.0065761 L467.660879,75.0065761 C462.569181,65.3827269 451.786761,62.6760193 442.202387,62.6760193 L441.303852,62.6760193 C436.511666,62.6760193 431.120456,63.5782552 426.627781,65.9842174 C412.850244,57.2626041 404.463918,65.6834722 400.270754,74.4050855 L399.971243,74.1043402 L399.971243,64.480491 L366.425936,64.480491 L366.425936,170.042087 L339.469886,170.042087 L339.469886,215.15388 C339.469886,222.973257 328.387954,223.274003 328.387954,215.15388 L328.387954,151.395879 L362.532284,151.395879 L362.532284,89.4423498 C362.532284,70.1946515 347.257189,63.8790004 334.078676,63.8790004 L330.784048,63.8790004 L330.784048,57.5633494 L330.484536,57.5633494 L349.952794,32 L328.986978,32 L316.706999,57.5633494 L316.706999,67.7886892 C310.117743,71.6983779 305.026044,78.3147742 305.026044,89.4423498 L305.026044,96.960982 L292.746066,96.960982 L292.746066,91.2468216 C294.543136,58.4655853 266.38904,57.8640947 257.40369,76.8110478 L257.40369,32 L193.008681,32 L193.008681,217.259097 L166.651655,217.259097 L166.651655,32.3007453 L137,32.3007453 L137,240.115739 L257.40369,240.115739 L257.40369,231.694871 C263.094411,247.03288 292.746066,245.529154 292.746066,213.650153 L292.746066,213.048663 L305.026044,213.048663 L305.026044,214.853135 C299.634835,235.003069 319.702116,241.31872 332.581118,241.31872 C332.581118,241.31872 364.029843,243.724682 362.532284,218.462078 L362.532284,198.612889 L366.425936,198.612889 L366.425936,240.416484 L400.270754,240.416484 L400.270754,86.1341517 L400.570266,86.1341517 C402.966359,82.8259535 408.058058,82.8259535 413.748779,87.0363875 L413.748779,116.509426 L436.811177,116.509426 L436.811177,91.2468216 C436.811177,83.4274441 447.893109,83.1266988 447.893109,91.2468216 L447.893109,122.524331 C424.830711,136.960105 413.449267,141.471285 413.748779,159.215256 L413.748779,224.476984 C413.748779,241.31872 434.415084,248.837352 447.893109,231.995616 L447.893109,240.416484 L471.255019,240.416484 L471.255019,203.124068 L486.829626,203.124068 L486.829626,225.37922 C486.829626,245.529154 505.698861,243.423937 522.172002,236.20605 L522.172002,240.416484 L547.630494,240.416484 L547.630494,207.635248 L559.011937,207.635248 L559.011937,214.552389 C559.011937,233.800088 574.586544,241.31872 590.760174,241.92021 C596.450895,242.220956 611.426479,242.220956 616.817689,231.394125 L616.817689,207.635248 L626.402062,207.635248 L626.402062,240.115739 L689,240.115739 L689,90.9460763 C688.101465,58.7663306 658.44981,58.16484 651.561042,76.5103025 Z" id="Path" stroke="#1B1B1F" stroke-width="0.11" fill="#1B1B1F" fill-rule="nonzero"></path>
            <polygon id="Path" stroke="#1B1B1F" stroke-width="1.093" fill="#FFFFFF" fill-rule="nonzero" points="126 29 152.680851 29 152.680851 209.378299 183 209.378299 183 232 126 232"></polygon>
            <g id="Group" transform="translate(220.000000, 29.000000)" fill-rule="nonzero" stroke="#1B1B1F">
                <path d="M26.714127,40.7028986 C33.6177778,22.2826087 60.9322222,23.173913 60.9322222,54.9637681 L60.9322222,175.586957 C60.031746,209.15942 30.9163492,210.942029 26.714127,192.224638 L26.714127,202.326087 L0.60031746,202.326087 L0.60031746,0.297101449 L26.714127,0.297101449 L26.714127,40.7028986" id="Path" stroke-width="1.093" fill="#FFFFFF" stroke-linecap="round" stroke-linejoin="round"></path>
                <path d="M36.6193651,178.855072 C36.6193651,186.57971 26.4139683,186.876812 26.4139683,178.855072 L26.4139683,54.0724638 C26.4139683,46.0507246 36.6193651,46.3478261 36.6193651,54.0724638 L36.6193651,178.855072 Z" id="Path" stroke-width="0.11" fill="#1B1B1F"></path>
            </g>
            <g id="Group" transform="translate(291.000000, 31.000000)" fill-rule="nonzero" stroke="#1B1B1F">
                <path d="M34.515,131.982362 L57.23,131.982362 L57.23,175.662667 C57.23,194.679942 42.185,201.81142 29.205,201.81142 L28.32,201.81142 C15.635,201.81142 0.59,194.382797 0.59,175.662667 L0.59,51.7532319 C0.59,32.7359565 15.635,26.1987681 28.32,26.1987681 L29.205,26.1987681 C42.185,26.1987681 57.23,32.7359565 57.23,51.7532319 L57.23,113.262232 L23.6,113.262232 L23.6,176.851246 C23.6,184.874159 34.515,184.577014 34.515,176.851246 L34.515,131.982362 L34.515,131.982362 Z" id="Path" stroke-width="1.093" fill="#FFFFFF"></path>
                <path d="M23.895,97.5135507 L23.895,52.0503768 C23.895,44.0274638 34.81,44.3246087 34.81,52.0503768 L34.81,97.5135507 L23.895,97.5135507" id="Path" stroke-width="0.11" fill="#1B1B1F"></path>
                <polygon id="Path" stroke-width="1.093" fill="#FFFFFF" points="21.83 17.8787101 35.105 17.8787101 50.15 0.0500144928 30.385 0.0500144928"></polygon>
            </g>
            <path d="M386.816795,78.7205737 C391.564711,70.321701 396.906117,75.1210568 404.621481,82.92001 C412.0401,90.7189632 428.657807,70.0217413 414.414058,59.5231504 C400.170309,49.3245193 391.267966,58.3233115 386.816795,67.3221036 L386.52005,66.7221842 L386.52005,57.723392 L361,57.723392 L361,232 L386.816795,232 L386.816795,78.7205737 Z" id="Path" stroke="#1B1B1F" stroke-width="1.093" fill="#FFFFFF" fill-rule="nonzero"></path>
            <g id="Group" transform="translate(399.000000, 55.000000)" fill-rule="nonzero" stroke="#1B1B1F">
                <path d="M0.295178571,150.36 L0.295178571,95.765 C2.77555756e-16,77.865 11.2167857,73.39 33.9455357,59.07 L33.9455357,26.5516667 C34.2407143,17.9 23.0239286,18.795 23.0239286,26.5516667 L23.0239286,53.4016667 L0.295178571,53.4016667 L0.295178571,25.955 C0.295178571,6.86166667 15.3492857,0.596666667 28.0419643,0.596666667 L28.9275,0.596666667 C41.9153571,0.596666667 56.9694643,7.16 56.9694643,25.955 L56.9694643,176.315 L33.9455357,176.315 L33.9455357,167.961667 C20.6625,184.668333 0.590357143,179.298333 0.295178571,160.503333 L0.295178571,150.36 L0.295178571,150.36 Z" id="Path" stroke-width="1.093" fill="#FFFFFF"></path>
                <path d="M24.2046429,96.3616667 C24.2046429,88.605 31.5841071,84.4283333 33.9455357,82.9366667 L33.9455357,152.448333 C33.9455357,160.205 24.2046429,160.503333 24.2046429,152.448333 L24.2046429,96.3616667" id="Path" stroke-width="0.11" fill="#1B1B1F"></path>
            </g>
            <path d="M495.261905,76.9324601 L502.071429,76.9324601 L502.071429,57.5453828 L495.261905,57.5453828 L495.571429,31 L470.809524,39.0530937 L470.809524,57.5453828 L464,57.5453828 L464,76.9324601 L470.809524,76.9324601 L470.809524,217.712468 C470.809524,236.204757 491.857143,233.22213 503,228.151663 L503,212.343739 C498.357143,212.343739 495.880952,207.869798 495.880952,201.009755 C495.261905,196.535814 495.261905,126.742336 495.261905,76.9324601 Z" id="Path" stroke="#1B1B1F" stroke-width="1.093" fill="#FFFFFF" fill-rule="nonzero"></path>
            <path d="M512,58.2989691 L534.571429,58.2989691 L534.571429,232 L512,232 L512,58.2989691 Z M512,29 L536,29 L536,50.5257732 L512,50.5257732 L512,29 Z" id="Shape" stroke="#1B1B1F" stroke-width="1.093" fill="#FFFFFF" fill-rule="nonzero"></path>
            <g id="Group" transform="translate(546.000000, 56.000000)" fill-rule="nonzero" stroke="#1B1B1F">
                <path d="M56.9694643,106.698333 L56.9694643,150.553333 C56.9694643,169.646667 42.2105357,176.508333 29.5178571,176.508333 L28.6323214,176.508333 C15.6444643,176.508333 0.295178571,169.348333 0.295178571,150.553333 L0.295178571,26.1483333 C0.295178571,7.055 15.3492857,0.491666667 28.3371429,0.491666667 L29.2226786,0.491666667 C41.9153571,0.491666667 56.9694643,7.055 56.9694643,26.1483333 L56.9694643,106.698333 L56.9694643,106.698333 Z" id="Path" stroke-width="1.093" fill="#FFFFFF"></path>
                <path d="M33.9455357,151.15 C33.9455357,158.906667 23.0239286,159.205 23.0239286,151.15 L23.0239286,25.85 C23.0239286,17.795 33.9455357,18.0933333 33.9455357,25.85 L33.9455357,151.15" id="Path" stroke-width="0.11" fill="#1B1B1F"></path>
            </g>
            <path d="M652.024876,232 L652.024876,82.2339095 C652.024876,74.4616174 641.402985,74.1626831 641.402985,82.2339095 L641.402985,232 L615,232 L615,57.7212959 L641.402985,57.7212959 L641.402985,69.0807998 C648.383085,50.8458067 676,51.4436753 676,83.4296468 L676,231.701066 L652.024876,232 L652.024876,232 Z" id="Path" stroke="#1B1B1F" stroke-width="1.093" fill="#FFFFFF" fill-rule="nonzero"></path>
            <path d="M184,29 L208,29 L208,50.728739 L184,50.728739 L184,29 Z M184,58.4677419 L207.414634,58.4677419 L207.414634,232 L184,232 L184,58.4677419 Z" id="Shape" stroke="#1B1B1F" stroke-width="1.093" fill="#FFFFFF" fill-rule="nonzero"></path>
        </g>
    </g>
</svg>