<?xml version="1.0" encoding="UTF-8"?>
<svg width="400px" height="400px" viewBox="0 0 400 400" version="1.1" xmlns="http://www.w3.org/2000/svg" xmlns:xlink="http://www.w3.org/1999/xlink">
    <!-- Generator: Sketch 53.2 (72643) - https://sketchapp.com -->
    <title>libe-labo-logo</title>
    <desc>Created with Sketch.</desc>
    <g id="libe-labo-logo" stroke="none" stroke-width="1" fill="none" fill-rule="evenodd">
        <g id="Group" transform="translate(0.000000, 33.000000)">
            <path d="M243.2,60.3 L243.2,46.4 C243.2,45.4 243.2,44.6 243.1,43.7 C242.8,43.7 242.5,43.7 242.2,43.7 L237.5,43.7 L237.5,72.1 C241.2,70.9 243.2,67.7 243.2,60.3 Z" id="Path"></path>
            <path d="M339,279.7 C339,293.9 342.5,300.4 349.8,302.9 C357.2,300.5 360.6,293.9 360.6,279.7 L360.6,228.7 C360.6,222.8 360,218.2 358.8,214.6 C356.3,213.8 353.3,213.5 349.8,213.5 C346.4,213.5 343.4,213.8 340.9,214.7 C339.6,218.2 339,222.8 339,228.8 L339,279.7 L339,279.7 Z" id="Path"></path>
            <path d="M243.2,229.5 L243.2,215.6 C243.2,214.6 243.2,213.8 243.1,212.9 C242.8,212.9 242.5,212.9 242.2,212.9 L237.5,212.9 L237.5,241.3 C241.5,240.3 243.2,237.1 243.2,229.5 Z" id="Path"></path>
            <polygon id="Path" points="138.3 268 137.7 264.7 137.2 268"></polygon>
            <path d="M248.1,120.7 L248.1,104.1 C248.1,102.6 248,101.3 247.9,100.2 C246.6,100 245.1,99.9 243.4,99.9 L237.3,99.9 L237.3,135 C244.8,134.4 248.1,130.8 248.1,120.7 Z" id="Path"></path>
            <path d="M248,269.5 C247.1,263 243.8,260.7 237.5,260.2 L237.5,269.3 L243.6,269.3 C245.2,269.2 246.8,269.3 248,269.5 Z" id="Path" fill="#354DFC" fill-rule="nonzero"></path>
            <g transform="translate(9.000000, 11.000000)" fill="#354DFC" fill-rule="nonzero">
                <polygon id="Path" points="9.3 142.9 0.2 142.9 0.2 152.1 59.3 152.1 59.3 142.9"></polygon>
                <path d="M261.7,69.5 C262.3,68.6 262.8,67.5 263.1,66.5 C260.4,67.6 257,68.2 253,68.4 C256.1,68.6 259,68.9 261.7,69.5 Z" id="Path"></path>
                <path d="M207.6,142.9 L207.6,142.9 L198.4,142.9 L198.4,152.1 L234.6,152.1 C252,152.1 261.9,147.7 266.4,138.7 C261,141.5 253.6,142.9 243.8,142.9 L207.6,142.9 L207.6,142.9 Z" id="Path"></path>
                <path d="M239,89.1 C238.1,82.6 234.8,80.3 228.5,79.8 L228.5,88.9 L234.6,88.9 C236.2,88.9 237.7,89 239,89.1 Z" id="Path"></path>
                <path d="M234.1,32.7 C233.7,27.3 231.9,24.9 228.5,24 L228.5,32.7 L233.2,32.7 C233.4,32.7 233.8,32.7 234.1,32.7 Z" id="Path"></path>
                <polygon id="Path" points="156.7 312.2 147.6 312.2 144.5 312.2 146 321.3 166.6 321.3 165 312.2 159 312.2"></polygon>
                <polygon id="Path" points="125.1 275.4 123.6 284.6 133.9 284.6 132.4 275.4"></polygon>
                <polygon id="Path" points="98.3 312.2 89.2 312.2 89.2 312.2 87.6 321.3 108.2 321.3 109.7 312.2 100.7 312.2"></polygon>
                <path d="M349.7,203.7 C348,198.9 345,196 340.8,194.6 C336.5,196 333.6,198.9 331.8,203.7 C334.3,202.9 337.3,202.5 340.7,202.5 C344.2,202.6 347.2,202.9 349.7,203.7 Z" id="Path"></path>
                <path d="M345.3,312.9 C343.8,313 342.3,313.1 340.8,313.1 C339.2,313.1 337.7,313 336.2,312.9 C334.7,313 333.2,313.1 331.7,313.1 C321,313.1 312.7,311.1 306.3,307.2 C312.6,317.1 323.7,322.3 340.8,322.3 C357.8,322.3 369.1,317 375.5,307 C369.1,311 360.7,313.1 350,313.1 C348.4,313 346.8,313 345.3,312.9 Z" id="Path"></path>
                <polygon id="Path" points="127.4 142.9 118.2 142.9 118.2 152.1 139 152.1 139 142.9"></polygon>
                <polygon id="Path" points="50.3 312.2 9.6 312.2 0.5 312.2 0.5 312.2 0.5 321.3 59.6 321.3 59.6 312.2 59.6 312.2"></polygon>
                <path d="M234.2,202.1 C233.8,196.7 232,194.3 228.6,193.4 L228.6,202.1 L233.3,202.1 C233.5,202.1 233.8,202.1 234.2,202.1 Z" id="Path"></path>
                <path d="M234.8,312.2 L225.6,312.2 L207.7,312.2 L198.5,312.2 L198.5,312.2 L198.5,321.4 L234.7,321.4 C252.1,321.4 262,317 266.5,308 C261.1,310.8 253.7,312.2 243.9,312.2 L234.8,312.2 L234.8,312.2 Z" id="Path"></path>
                <path d="M261.7,238.9 C262.3,238 262.7,236.9 263.1,235.9 C260.4,237 257,237.6 253,237.8 C256.4,237.8 259.3,238.2 261.7,238.9 Z" id="Path"></path>
                <polygon id="Path" points="347.7 25.1 347.7 34.3 381.7 34.3 381.7 25.1 372.6 25.1"></polygon>
                <rect id="Rectangle" x="347.7" y="81.5" width="32.7" height="9.2"></rect>
                <polygon id="Path" points="326.9 142.9 317.7 142.9 317.7 142.9 317.7 152.1 381.7 152.1 381.7 142.9"></polygon>
                <polygon id="Path" points="362.5 0.2 355.9 0.2 355.9 0.2 346.8 0.2 341.3 0.2 341.2 0.2 339.7 4.9 357.4 4.9"></polygon>
            </g>
            <polygon id="Path" fill="#002C49" fill-rule="nonzero" points="59.1 153.9 18.3 153.9 18.3 153.9 68.3 153.9 68.3 153.9"></polygon>
            <path d="M237.5,43.7 L237.5,35 C236.2,34.7 234.8,34.5 233,34.5 L228.3,34.5 L228.3,43.7 L237.5,43.7 Z" id="Path" fill="#002C49" fill-rule="nonzero"></path>
            <path d="M237.5,99.9 L237.5,90.8 C236.5,90.7 235.5,90.7 234.4,90.7 L228.3,90.7 L228.3,99.9 L237.5,99.9 L237.5,99.9 Z" id="Path" fill="#002C49" fill-rule="nonzero"></path>
            <path d="M278.3,125.6 C278.3,144.7 268.8,153.9 243.6,153.9 L234.4,153.9 L216.5,153.9 L216.5,153.9 L252.7,153.9 C262.5,153.9 269.9,152.5 275.3,149.7 C277.3,145.7 278.2,140.7 278.2,134.8 L278.2,125.6 L278.3,125.6 L278.3,125.6 Z" id="Path" fill="#002C49" fill-rule="nonzero"></path>
            <path d="M273.1,50.5 L273.1,50.5 L273.1,61.1 C273.1,71.9 267.5,78.5 252.8,79.4 C259.5,79.7 264.6,81 268.5,83.1 C269.3,82.3 270,81.5 270.6,80.5 C268,79.9 265.2,79.6 261.9,79.4 C265.9,79.2 269.3,78.5 272,77.5 C272.7,75.4 273.1,73 273.1,70.3 L273.1,50.5 L273.1,50.5 Z" id="Path" fill="#002C49" fill-rule="nonzero"></path>
            <polygon id="Path" fill="#002C49" fill-rule="nonzero" points="124.9 286.4 123.3 295.6 132.6 295.6 134.1 286.4"></polygon>
            <path d="M329.9,228.7 L329.9,237.9 C329.9,223.7 333.4,217.1 340.9,214.7 C342.6,209.9 345.6,207 349.9,205.6 C348.5,205.1 347,204.8 345.3,204.6 C334.7,205.9 329.9,212 329.9,228.7 Z" id="Path" fill="#002C49" fill-rule="nonzero"></path>
            <path d="M390.7,282.3 C390.7,307.9 379.5,322.4 354.3,324 C355.8,324.1 357.3,324.2 358.9,324.2 C369.6,324.2 378,322.1 384.4,318.1 C388.7,311.4 390.7,302.5 390.7,291.6 L390.7,282.3 L390.7,282.3 Z" id="Path" fill="#002C49" fill-rule="nonzero"></path>
            <polygon id="Path" fill="#002C49" fill-rule="nonzero" points="138.9 153.9 136.4 153.9 136.4 153.9 148 153.9 148 153.9"></polygon>
            <path d="M228.4,269.2 L237.6,269.2 L237.6,260.1 C236.6,260 235.6,260 234.5,260 L228.4,260" id="Path" fill="#002C49" fill-rule="nonzero"></path>
            <path d="M237.6,213.1 L237.6,204.4 C236.3,204.1 234.9,203.9 233.1,203.9 L228.4,203.9 L228.4,242 L228.4,242 L228.4,213.1 L237.6,213.1 L237.6,213.1 Z" id="Path" fill="#002C49" fill-rule="nonzero"></path>
            <path d="M278.5,294.9 C278.5,314 269,323.2 243.8,323.2 L253,323.2 C262.8,323.2 270.2,321.8 275.6,319 C277.6,315 278.5,310 278.5,304.1 L278.5,294.9 L278.5,294.9 Z" id="Path" fill="#002C49" fill-rule="nonzero"></path>
            <path d="M273.2,230.4 C273.2,241.2 267.6,247.8 252.9,248.7 C259.6,249 264.7,250.3 268.6,252.4 C269.4,251.6 270.1,250.8 270.7,249.8 C268.1,249.2 265.3,248.9 262,248.7 C266,248.5 269.4,247.8 272.1,246.8 C272.8,244.7 273.2,242.3 273.2,239.6 L273.2,230.4 L273.2,230.4 Z" id="Path" fill="#002C49" fill-rule="nonzero"></path>
            <polygon id="Path" fill="#002C49" fill-rule="nonzero" points="381.6 153.9 335.9 153.9 335.9 153.9 390.7 153.9 390.7 153.9"></polygon>
            <rect id="Rectangle" fill="#002C49" fill-rule="nonzero" x="347.5" y="36.1" width="9.2" height="9.2"></rect>
            <rect id="Rectangle" fill="#002C49" fill-rule="nonzero" x="347.5" y="92.5" width="9.2" height="9.2"></rect>
            <g transform="translate(30.000000, 0.000000)" fill="#00FF8B" fill-rule="nonzero">
                <rect id="Rectangle" x="0" y="15.9" width="9.2" height="117.7"></rect>
                <polygon id="Path" points="47.4 133.6 38.3 133.6 38.3 153.9 38.3 153.9 38.3 153.9 47.4 153.9"></polygon>
                <path d="M207.5,72.1 L207.5,43.7 L198.3,43.7 L198.3,72.6 L203,72.6 C204.7,72.7 206.1,72.5 207.5,72.1 Z" id="Path"></path>
                <path d="M243.1,41.3 L243.1,50.4 L243.1,50.4 L243.1,70.2 C243.1,72.8 242.8,75.2 242,77.4 C249.3,74.6 252.2,68.9 252.2,61.1 L252.2,41.3 C252.2,23.7 244.1,15.9 222.2,15.9 L213.1,15.9 C234.9,15.9 243.1,23.7 243.1,41.3 Z" id="Path"></path>
                <path d="M207.5,134.9 L207.5,99.8 L198.3,99.8 L198.3,135 L204.4,135 C205.5,135.1 206.4,135.1 207.5,134.9 Z" id="Path"></path>
                <path d="M238.6,83.1 C245.5,86.8 248.4,93.3 248.4,102.1 L248.4,111.3 L248.4,125.7 L248.4,134.9 C248.4,140.8 247.5,145.8 245.5,149.8 C254,145.4 257.6,137.4 257.6,125.7 L257.6,102.2 C257.6,90.7 252.8,83.3 240.7,80.6 C240,81.5 239.4,82.3 238.6,83.1 Z" id="Path"></path>
                <polygon id="Path" points="88.9 323.2 98 323.2 102.6 295.6 93.3 295.6"></polygon>
                <polygon id="Path" points="98 268 107.2 268 107.7 264.7 103.2 237.5"></polygon>
                <polygon id="Path" points="123.1 185.2 147.2 323.2 156.4 323.2 132.2 185.2"></polygon>
                <path d="M329,184.4 C327.6,184.4 326.2,184.5 324.8,184.6 C350,186.3 360.8,200.8 360.8,226.3 L360.8,235.5 L360.8,282.4 L360.8,291.6 C360.8,302.5 358.8,311.4 354.5,318.1 C365.1,311.4 370,299.3 370,282.4 L370,226.4 C369.9,199.2 357.8,184.4 329,184.4 Z" id="Path"></path>
                <path d="M309,279.7 L309,228.7 C309,222.8 309.6,218.2 310.9,214.6 C303.4,217 299.9,223.6 299.9,237.8 L299.9,279.6 C299.9,296.5 304.8,302.5 315.3,303.7 C317,303.5 318.5,303.2 319.9,302.7 C312.4,300.4 309,293.9 309,279.7 Z" id="Path"></path>
                <polygon id="Path" points="127.2 15.9 118 15.9 118 25.1 118 153.9 118 153.9 127.2 153.9"></polygon>
                <polygon id="Path" points="38.6 312 38.6 312 38.6 323.2 47.7 323.2 47.7 302.9 38.6 302.9"></polygon>
                <polygon id="Path" points="0.3 194.4 0.3 194.4 0.3 302.9 9.5 302.9 9.5 185.2 0.3 185.2"></polygon>
                <path d="M240.7,249.9 C240.1,250.8 239.4,251.7 238.6,252.5 C245.5,256.2 248.4,262.7 248.4,271.5 L248.4,280.7 L248.4,280.7 L248.4,304.2 C248.4,310.1 247.5,315.1 245.5,319.1 C254,314.7 257.6,306.7 257.6,295 L257.6,271.5 C257.6,259.9 252.8,252.5 240.7,249.9 Z" id="Path"></path>
                <path d="M243.2,230.4 L243.2,230.4 L243.2,239.6 C243.2,242.3 242.9,244.6 242.1,246.8 C249.4,244 252.3,238.3 252.3,230.5 L252.3,210.7 C252.3,193.1 244.2,185.3 222.3,185.3 L213.1,185.3 C234.9,185.3 243.1,193.1 243.1,210.7 L243.2,230.4 L243.2,230.4 Z" id="Path"></path>
                <path d="M198.4,241.9 L203.1,241.9 C204.8,241.9 206.3,241.8 207.6,241.4 L207.6,213 L198.4,213 L198.4,241.9 Z" id="Path"></path>
                <path d="M198.4,304.4 L204.5,304.4 C205.6,304.4 206.6,304.4 207.6,304.3 L207.6,269.2 L198.4,269.2 L198.4,304.4 L198.4,304.4 Z" id="Path"></path>
                <rect id="Rectangle" x="317.5" y="101.7" width="9.2" height="31.8"></rect>
                <polygon id="Path" points="360.7 142.8 360.7 153.9 360.7 153.9 369.9 153.9 369.9 133.6 360.7 133.6"></polygon>
                <rect id="Rectangle" x="317.5" y="45.3" width="9.2" height="27.6"></rect>
                <polygon id="Path" points="359.4 92.5 368.5 92.5 368.5 72.9 359.4 72.9 359.4 82.1 359.4 82.1"></polygon>
                <polygon id="Path" points="360.7 15.9 360.7 25.1 360.7 36.1 369.9 36.1 369.9 15.9"></polygon>
                <polygon id="Path" points="346.1 0.7 336.3 9.9 342.9 9.9 341.5 11.2 344 11.2 355.2 0.7 333 0.7 333 0.7 337 0.7"></polygon>
            </g>
            <polygon id="Path" fill="#002C49" fill-rule="nonzero" points="366.3 9.9 364.9 11.2 371.5 11.2 372.9 9.9"></polygon>
            <g fill="#FF0000" fill-rule="nonzero">
                <rect id="Rectangle" x="0" y="15.9" width="9.2" height="138"></rect>
                <path d="M237.5,72.1 C236.2,72.5 234.8,72.6 233,72.6 L237.5,72.6 L242.2,72.6 C249.1,72.6 252.4,70.2 252.4,60.3 L252.4,60.3 L252.4,46.5 C252.4,36.9 249.2,34.7 242.3,34.6 L242.3,34.6 L233,34.6 C234.7,34.6 236.2,34.7 237.5,35.1 C240.9,36 242.7,38.4 243.1,43.8 C243.2,44.6 243.2,45.5 243.2,46.5 L243.2,60.4 C243.2,67.7 241.2,70.9 237.5,72.1 Z" id="Path"></path>
                <rect id="Rectangle" x="198.3" y="15.9" width="9.2" height="138"></rect>
                <path d="M237.5,90.8 L234.4,90.8 C235.5,90.8 236.4,90.8 237.5,90.8 C243.8,91.4 247.2,93.7 248,100.2 C248.2,101.4 248.2,102.7 248.2,104.1 L248.2,120.7 C248.2,130.9 244.9,134.3 237.4,135 C236.4,135.1 235.4,135.1 234.3,135.1 L237.4,135.1 L243.5,135.1 C253.2,135.1 257.4,132.2 257.4,120.7 L257.4,113.2 L257.4,104.1 C257.4,93.3 253.2,90.7 243.5,90.7 L237.5,90.7 L237.5,90.8 L237.5,90.8 Z" id="Path"></path>
                <polygon id="Path" points="88.9 323.2 98.2 323.2 98.2 323.2 120.8 194.4 122.4 185.2 113.3 185.2"></polygon>
                <polygon id="Path" points="147.5 268 142.4 237.5 137.7 210.3 136.1 219.7 133.2 237.5 137.7 264.7 138.3 268 144.3 268"></polygon>
                <polygon id="Path" points="141.4 286.4 142.9 295.6 147.5 323.2 153.5 323.2 156.6 323.2 150.4 286.4"></polygon>
                <path d="M345.2,184.5 C343.7,184.4 342.2,184.3 340.6,184.3 C311.8,184.3 299.8,199 299.8,226.1 L299.8,282.1 C299.8,299.2 304.6,311.4 315.2,318 C321.5,321.9 329.9,323.9 340.6,323.9 C342.2,323.9 343.7,323.8 345.1,323.7 C319.7,322.2 308.9,307.8 308.9,282.1 L308.9,282.1 L308.9,226.1 C308.9,200.5 319.8,186 345.2,184.5 Z" id="Path"></path>
                <path d="M354.5,204.7 C353,204.5 351.4,204.4 349.7,204.4 C348.1,204.4 346.6,204.5 345.1,204.6 C346.8,204.8 348.3,205.1 349.7,205.6 C354,207 356.9,209.8 358.6,214.7 C359.8,218.2 360.4,222.8 360.4,228.8 L360.4,279.8 C360.4,294 357,300.5 349.6,303 C348.2,303.5 346.7,303.8 345,304 C346.4,304.2 347.9,304.2 349.6,304.2 C351.2,304.2 352.8,304.1 354.2,304 C364.8,302.8 369.6,296.7 369.6,279.9 L369.6,238 L369.6,228.9 C369.7,212 365,205.9 354.5,204.7 Z" id="Path"></path>
                <rect id="Rectangle" x="118" y="15.9" width="9.2" height="138"></rect>
                <polygon id="Path" points="0.3 323.2 9.5 323.2 9.5 323.2 9.5 194.4 9.5 185.2 0.3 185.2"></polygon>
                <path d="M237.6,241.5 C236.3,241.9 234.9,242 233.1,242 L237.6,242 L242.3,242 C249.2,242 252.5,239.6 252.5,229.6 L252.5,224.9 L252.5,215.7 C252.5,206.1 249.3,203.9 242.4,203.8 L242.4,203.8 L233.2,203.8 C234.9,203.8 236.4,203.9 237.7,204.3 C241.1,205.2 242.9,207.6 243.3,213 C243.4,213.8 243.4,214.7 243.4,215.7 L243.4,229.6 C243.2,237.1 241.5,240.3 237.6,241.5 Z" id="Path"></path>
                <polygon id="Path" points="198.4 323.2 207.6 323.2 207.6 323.2 207.6 194.4 207.6 185.2 198.4 185.2"></polygon>
                <path d="M243.6,260 L243.6,260 L234.4,260 C235.5,260 236.5,260 237.5,260.1 C243.8,260.6 247.2,262.9 248,269.4 C248.2,270.6 248.2,271.9 248.2,273.3 L248.2,289.9 C248.2,300.1 244.9,303.5 237.4,304.2 C236.4,304.3 235.4,304.3 234.3,304.3 L237.4,304.3 L243.5,304.3 C253.1,304.3 257.4,301.4 257.4,289.9 L257.4,289.9 L257.4,273.3 C257.5,262.7 253.2,260 243.6,260 Z" id="Path"></path>
                <polygon id="Path" points="326.7 153.9 326.7 25.1 326.7 15.9 317.5 15.9 317.5 153.9"></polygon>
                <polygon id="Path" points="350.3 11.2 350.8 9.9 353.9 0.7 344.7 0.7 341.1 11.2 350.2 11.2"></polygon>
            </g>
            <g transform="translate(9.000000, 0.000000)" fill="#FFFFFF" fill-rule="nonzero">
                <polygon id="Path" points="50.1 153.9 59.3 153.9 59.3 153.9 59.3 133.6 59.3 133.6 50.1 133.6 30.2 133.6 21 133.6 21 15.9 21 15.9 11.8 15.9 0.2 15.9 0.2 153.9 0.2 153.9 9.3 153.9"></polygon>
                <path d="M225.4,153.9 L234.6,153.9 C259.8,153.9 269.3,144.8 269.3,125.6 L269.3,111.2 L269.3,102 C269.3,93.1 266.4,86.7 259.5,83 C255.6,80.9 250.4,79.6 243.8,79.3 C258.5,78.5 264.1,71.8 264.1,61 L264.1,50.3 L264.1,41.3 C264.1,23.7 256,15.9 234.2,15.9 L234.2,15.9 L225,15.9 L198.4,15.9 L198.4,153.9 L198.4,153.9 L207.6,153.9 L225.5,153.9 L225.5,154.1 L225.4,154.1 L225.4,153.9 Z M243.3,46.4 L243.3,60.3 L243.3,60.3 C243.3,70.3 240.1,72.6 233.1,72.6 L228.4,72.6 L224,72.6 L219.3,72.6 L219.3,43.6 L219.3,34.4 L224,34.4 L233.2,34.4 L233.2,34.4 C240.1,34.5 243.3,36.8 243.3,46.4 Z M219.3,99.9 L219.3,90.7 L225.4,90.7 L228.5,90.7 L234.6,90.7 C244.3,90.7 248.5,93.2 248.5,104.1 L248.5,113.2 L248.5,120.7 C248.5,132.2 244.3,135.1 234.6,135.1 L228.5,135.1 L225.4,135.1 L219.3,135.1 L219.3,99.9 Z" id="Shape"></path>
                <path d="M134.9,185.2 L122.6,185.2 L113.4,185.2 L111.8,194.4 L89.2,323.2 L98.4,323.2 L100.7,323.2 L109.7,323.2 L109.8,323.2 L114.4,295.6 L115.9,286.4 L125.1,286.4 L132.3,286.4 L141.5,286.4 L147.6,323.1 L156.8,323.1 L159.1,323.1 L165,323.1 L168.3,323.1 L144.1,185.1 L134.9,185.2 L134.9,185.2 Z M138.5,268 L135.3,268 L129.3,268 L128.2,268 L119,268 L124.2,237.5 L127.2,219.7 L128.8,210.3 L133.3,237.5 L138.5,268 Z" id="Shape"></path>
                <path d="M345.8,184.5 C344.2,184.4 342.5,184.3 340.8,184.3 C339.2,184.3 337.7,184.4 336.2,184.5 C310.7,186 300,200.6 300,226.2 L300,282.2 L300,282.2 C300,307.9 310.7,322.3 336.2,323.8 C337.7,323.9 339.2,324 340.8,324 C342.4,324 343.9,323.9 345.3,323.8 C370.5,322.3 381.7,307.7 381.7,282.1 L381.7,235.2 L381.7,226 C381.7,200.8 370.9,186.1 345.8,184.5 Z M345.3,303.9 C343.9,304.1 342.3,304.1 340.7,304.1 C339.1,304.1 337.6,304 336.1,303.9 C325.6,302.7 320.7,296.6 320.7,279.8 L320.7,238 L320.7,228.8 C320.7,212.1 325.6,205.9 336.1,204.7 C337.5,204.5 339,204.5 340.7,204.5 C342.4,204.5 344,204.6 345.5,204.8 C356,206.1 360.7,212.3 360.7,228.9 L360.7,238 L360.7,279.9 C360.7,296.5 356,302.7 345.3,303.9 Z" id="Shape"></path>
                <polygon id="Path" points="127.4 153.9 129.9 153.9 139 153.9 139 25.1 139 15.9 139 15.9 129.9 15.9 118.2 15.9 118.2 153.9 118.2 153.9"></polygon>
                <polygon id="Path" points="30.5 302.9 21.3 302.9 21.3 302.9 21.3 194.4 21.3 185.2 12.1 185.2 9.6 185.2 0.5 185.2 0.5 194.4 0.5 323.2 9.6 323.2 50.3 323.2 59.6 323.2 59.6 312 59.6 302.9 59.6 302.9 50.3 302.9"></polygon>
                <path d="M259.7,252.3 C255.8,250.2 250.6,248.9 244,248.6 C258.7,247.8 264.3,241.2 264.3,230.3 L264.3,230.3 L264.3,210.5 C264.3,192.9 256.2,185.1 234.3,185.1 L225.1,185.1 L207.7,185.1 L198.5,185.1 L198.5,194.3 L198.5,323.1 L207.7,323.1 L225.6,323.1 L234.8,323.1 C260,323.1 269.5,314 269.5,294.8 L269.5,280.4 L269.5,271.2 C269.5,262.5 266.5,256.1 259.7,252.3 Z M219.4,203.9 L224.1,203.9 L233.3,203.9 L233.3,203.9 C240.2,203.9 243.4,206.1 243.4,215.8 L243.4,225 L243.4,229.7 C243.4,239.7 240.2,242.1 233.2,242.1 L228.5,242.1 L224,242.1 L219.3,242.1 L219.3,242.1 L219.3,203.9 L219.4,203.9 L219.4,203.9 Z M219.4,260 L225.5,260 L234.7,260 L234.8,260 C244.4,260 248.6,262.6 248.6,273.4 L248.6,290 L248.6,290 C248.6,301.5 244.4,304.4 234.7,304.4 L228.7,304.4 L225.6,304.4 L219.5,304.4 L219.5,304.4 L219.5,260 L219.4,260 Z" id="Shape"></path>
                <polygon id="Path" points="372.6 15.9 357.4 15.9 339.7 15.9 317.7 15.9 317.7 25.1 317.7 153.9 326.9 153.9 372.6 153.9 381.7 153.9 381.7 142.8 381.7 133.6 381.7 133.6 372.6 133.6 347.7 133.6 338.5 133.6 338.5 133.6 338.5 92.5 371.2 92.5 380.4 92.5 380.4 82.1 380.4 72.9 380.4 72.9 371.2 72.9 347.7 72.9 338.5 72.9 338.5 72.9 338.5 36.1 347.7 36.1 372.6 36.1 381.7 36.1 381.7 25.1 381.7 15.9 381.7 15.9"></polygon>
                <polygon id="Path" points="350.5 11.2 355.9 11.2 357.3 9.9 367.1 0.7 358 0.7 354 0.7 344.9 0.7 341.8 9.9 341.3 11.2 346.8 11.2"></polygon>
            </g>
        </g>
        <g id="Group" transform="translate(0.000000, 33.000000)">
            <path d="M243.2,60.3 L243.2,46.4 C243.2,45.4 243.2,44.6 243.1,43.7 C242.8,43.7 242.5,43.7 242.2,43.7 L237.5,43.7 L237.5,72.1 C241.2,70.9 243.2,67.7 243.2,60.3 Z" id="Path"></path>
            <path d="M339,279.7 C339,293.9 342.5,300.4 349.8,302.9 C357.2,300.5 360.6,293.9 360.6,279.7 L360.6,228.7 C360.6,222.8 360,218.2 358.8,214.6 C356.3,213.8 353.3,213.5 349.8,213.5 C346.4,213.5 343.4,213.8 340.9,214.7 C339.6,218.2 339,222.8 339,228.8 L339,279.7 L339,279.7 Z" id="Path"></path>
            <path d="M243.2,229.5 L243.2,215.6 C243.2,214.6 243.2,213.8 243.1,212.9 C242.8,212.9 242.5,212.9 242.2,212.9 L237.5,212.9 L237.5,241.3 C241.5,240.3 243.2,237.1 243.2,229.5 Z" id="Path"></path>
            <polygon id="Path" points="138.3 268 137.7 264.7 137.2 268"></polygon>
            <path d="M248.1,120.7 L248.1,104.1 C248.1,102.6 248,101.3 247.9,100.2 C246.6,100 245.1,99.9 243.4,99.9 L237.3,99.9 L237.3,135 C244.8,134.4 248.1,130.8 248.1,120.7 Z" id="Path"></path>
            <path d="M248,269.5 C247.1,263 243.8,260.7 237.5,260.2 L237.5,269.3 L243.6,269.3 C245.2,269.2 246.8,269.3 248,269.5 Z" id="Path" fill="#354DFC" fill-rule="nonzero"></path>
            <g transform="translate(9.000000, 11.000000)" fill="#354DFC" fill-rule="nonzero">
                <polygon id="Path" points="9.3 142.9 0.2 142.9 0.2 152.1 59.3 152.1 59.3 142.9"></polygon>
                <path d="M261.7,69.5 C262.3,68.6 262.8,67.5 263.1,66.5 C260.4,67.6 257,68.2 253,68.4 C256.1,68.6 259,68.9 261.7,69.5 Z" id="Path"></path>
                <path d="M207.6,142.9 L207.6,142.9 L198.4,142.9 L198.4,152.1 L234.6,152.1 C252,152.1 261.9,147.7 266.4,138.7 C261,141.5 253.6,142.9 243.8,142.9 L207.6,142.9 L207.6,142.9 Z" id="Path"></path>
                <path d="M239,89.1 C238.1,82.6 234.8,80.3 228.5,79.8 L228.5,88.9 L234.6,88.9 C236.2,88.9 237.7,89 239,89.1 Z" id="Path"></path>
                <path d="M234.1,32.7 C233.7,27.3 231.9,24.9 228.5,24 L228.5,32.7 L233.2,32.7 C233.4,32.7 233.8,32.7 234.1,32.7 Z" id="Path"></path>
                <polygon id="Path" points="156.7 312.2 147.6 312.2 144.5 312.2 146 321.3 166.6 321.3 165 312.2 159 312.2"></polygon>
                <polygon id="Path" points="125.1 275.4 123.6 284.6 133.9 284.6 132.4 275.4"></polygon>
                <polygon id="Path" points="98.3 312.2 89.2 312.2 89.2 312.2 87.6 321.3 108.2 321.3 109.7 312.2 100.7 312.2"></polygon>
                <path d="M349.7,203.7 C348,198.9 345,196 340.8,194.6 C336.5,196 333.6,198.9 331.8,203.7 C334.3,202.9 337.3,202.5 340.7,202.5 C344.2,202.6 347.2,202.9 349.7,203.7 Z" id="Path"></path>
                <path d="M345.3,312.9 C343.8,313 342.3,313.1 340.8,313.1 C339.2,313.1 337.7,313 336.2,312.9 C334.7,313 333.2,313.1 331.7,313.1 C321,313.1 312.7,311.1 306.3,307.2 C312.6,317.1 323.7,322.3 340.8,322.3 C357.8,322.3 369.1,317 375.5,307 C369.1,311 360.7,313.1 350,313.1 C348.4,313 346.8,313 345.3,312.9 Z" id="Path"></path>
                <polygon id="Path" points="127.4 142.9 118.2 142.9 118.2 152.1 139 152.1 139 142.9"></polygon>
                <polygon id="Path" points="50.3 312.2 9.6 312.2 0.5 312.2 0.5 312.2 0.5 321.3 59.6 321.3 59.6 312.2 59.6 312.2"></polygon>
                <path d="M234.2,202.1 C233.8,196.7 232,194.3 228.6,193.4 L228.6,202.1 L233.3,202.1 C233.5,202.1 233.8,202.1 234.2,202.1 Z" id="Path"></path>
                <path d="M234.8,312.2 L225.6,312.2 L207.7,312.2 L198.5,312.2 L198.5,312.2 L198.5,321.4 L234.7,321.4 C252.1,321.4 262,317 266.5,308 C261.1,310.8 253.7,312.2 243.9,312.2 L234.8,312.2 L234.8,312.2 Z" id="Path"></path>
                <path d="M261.7,238.9 C262.3,238 262.7,236.9 263.1,235.9 C260.4,237 257,237.6 253,237.8 C256.4,237.8 259.3,238.2 261.7,238.9 Z" id="Path"></path>
                <polygon id="Path" points="347.7 25.1 347.7 34.3 381.7 34.3 381.7 25.1 372.6 25.1"></polygon>
                <rect id="Rectangle" x="347.7" y="81.5" width="32.7" height="9.2"></rect>
                <polygon id="Path" points="326.9 142.9 317.7 142.9 317.7 142.9 317.7 152.1 381.7 152.1 381.7 142.9"></polygon>
                <polygon id="Path" points="362.5 0.2 355.9 0.2 355.9 0.2 346.8 0.2 341.3 0.2 341.2 0.2 339.7 4.9 357.4 4.9"></polygon>
            </g>
            <polygon id="Path" fill="#002C49" fill-rule="nonzero" points="59.1 153.9 18.3 153.9 18.3 153.9 68.3 153.9 68.3 153.9"></polygon>
            <path d="M237.5,43.7 L237.5,35 C236.2,34.7 234.8,34.5 233,34.5 L228.3,34.5 L228.3,43.7 L237.5,43.7 Z" id="Path" fill="#002C49" fill-rule="nonzero"></path>
            <path d="M237.5,99.9 L237.5,90.8 C236.5,90.7 235.5,90.7 234.4,90.7 L228.3,90.7 L228.3,99.9 L237.5,99.9 L237.5,99.9 Z" id="Path" fill="#002C49" fill-rule="nonzero"></path>
            <path d="M278.3,125.6 C278.3,144.7 268.8,153.9 243.6,153.9 L234.4,153.9 L216.5,153.9 L216.5,153.9 L252.7,153.9 C262.5,153.9 269.9,152.5 275.3,149.7 C277.3,145.7 278.2,140.7 278.2,134.8 L278.2,125.6 L278.3,125.6 L278.3,125.6 Z" id="Path" fill="#002C49" fill-rule="nonzero"></path>
            <path d="M273.1,50.5 L273.1,50.5 L273.1,61.1 C273.1,71.9 267.5,78.5 252.8,79.4 C259.5,79.7 264.6,81 268.5,83.1 C269.3,82.3 270,81.5 270.6,80.5 C268,79.9 265.2,79.6 261.9,79.4 C265.9,79.2 269.3,78.5 272,77.5 C272.7,75.4 273.1,73 273.1,70.3 L273.1,50.5 L273.1,50.5 Z" id="Path" fill="#002C49" fill-rule="nonzero"></path>
            <polygon id="Path" fill="#002C49" fill-rule="nonzero" points="124.9 286.4 123.3 295.6 132.6 295.6 134.1 286.4"></polygon>
            <path d="M329.9,228.7 L329.9,237.9 C329.9,223.7 333.4,217.1 340.9,214.7 C342.6,209.9 345.6,207 349.9,205.6 C348.5,205.1 347,204.8 345.3,204.6 C334.7,205.9 329.9,212 329.9,228.7 Z" id="Path" fill="#002C49" fill-rule="nonzero"></path>
            <path d="M390.7,282.3 C390.7,307.9 379.5,322.4 354.3,324 C355.8,324.1 357.3,324.2 358.9,324.2 C369.6,324.2 378,322.1 384.4,318.1 C388.7,311.4 390.7,302.5 390.7,291.6 L390.7,282.3 L390.7,282.3 Z" id="Path" fill="#002C49" fill-rule="nonzero"></path>
            <polygon id="Path" fill="#002C49" fill-rule="nonzero" points="138.9 153.9 136.4 153.9 136.4 153.9 148 153.9 148 153.9"></polygon>
            <path d="M228.4,269.2 L237.6,269.2 L237.6,260.1 C236.6,260 235.6,260 234.5,260 L228.4,260" id="Path" fill="#002C49" fill-rule="nonzero"></path>
            <path d="M237.6,213.1 L237.6,204.4 C236.3,204.1 234.9,203.9 233.1,203.9 L228.4,203.9 L228.4,242 L228.4,242 L228.4,213.1 L237.6,213.1 L237.6,213.1 Z" id="Path" fill="#002C49" fill-rule="nonzero"></path>
            <path d="M278.5,294.9 C278.5,314 269,323.2 243.8,323.2 L253,323.2 C262.8,323.2 270.2,321.8 275.6,319 C277.6,315 278.5,310 278.5,304.1 L278.5,294.9 L278.5,294.9 Z" id="Path" fill="#002C49" fill-rule="nonzero"></path>
            <path d="M273.2,230.4 C273.2,241.2 267.6,247.8 252.9,248.7 C259.6,249 264.7,250.3 268.6,252.4 C269.4,251.6 270.1,250.8 270.7,249.8 C268.1,249.2 265.3,248.9 262,248.7 C266,248.5 269.4,247.8 272.1,246.8 C272.8,244.7 273.2,242.3 273.2,239.6 L273.2,230.4 L273.2,230.4 Z" id="Path" fill="#002C49" fill-rule="nonzero"></path>
            <polygon id="Path" fill="#002C49" fill-rule="nonzero" points="381.6 153.9 335.9 153.9 335.9 153.9 390.7 153.9 390.7 153.9"></polygon>
            <rect id="Rectangle" fill="#002C49" fill-rule="nonzero" x="347.5" y="36.1" width="9.2" height="9.2"></rect>
            <rect id="Rectangle" fill="#002C49" fill-rule="nonzero" x="347.5" y="92.5" width="9.2" height="9.2"></rect>
            <g transform="translate(30.000000, 0.000000)" fill="#00FF8B" fill-rule="nonzero">
                <rect id="Rectangle" x="0" y="15.9" width="9.2" height="117.7"></rect>
                <polygon id="Path" points="47.4 133.6 38.3 133.6 38.3 153.9 38.3 153.9 38.3 153.9 47.4 153.9"></polygon>
                <path d="M207.5,72.1 L207.5,43.7 L198.3,43.7 L198.3,72.6 L203,72.6 C204.7,72.7 206.1,72.5 207.5,72.1 Z" id="Path"></path>
                <path d="M243.1,41.3 L243.1,50.4 L243.1,50.4 L243.1,70.2 C243.1,72.8 242.8,75.2 242,77.4 C249.3,74.6 252.2,68.9 252.2,61.1 L252.2,41.3 C252.2,23.7 244.1,15.9 222.2,15.9 L213.1,15.9 C234.9,15.9 243.1,23.7 243.1,41.3 Z" id="Path"></path>
                <path d="M207.5,134.9 L207.5,99.8 L198.3,99.8 L198.3,135 L204.4,135 C205.5,135.1 206.4,135.1 207.5,134.9 Z" id="Path"></path>
                <path d="M238.6,83.1 C245.5,86.8 248.4,93.3 248.4,102.1 L248.4,111.3 L248.4,125.7 L248.4,134.9 C248.4,140.8 247.5,145.8 245.5,149.8 C254,145.4 257.6,137.4 257.6,125.7 L257.6,102.2 C257.6,90.7 252.8,83.3 240.7,80.6 C240,81.5 239.4,82.3 238.6,83.1 Z" id="Path"></path>
                <polygon id="Path" points="88.9 323.2 98 323.2 102.6 295.6 93.3 295.6"></polygon>
                <polygon id="Path" points="98 268 107.2 268 107.7 264.7 103.2 237.5"></polygon>
                <polygon id="Path" points="123.1 185.2 147.2 323.2 156.4 323.2 132.2 185.2"></polygon>
                <path d="M329,184.4 C327.6,184.4 326.2,184.5 324.8,184.6 C350,186.3 360.8,200.8 360.8,226.3 L360.8,235.5 L360.8,282.4 L360.8,291.6 C360.8,302.5 358.8,311.4 354.5,318.1 C365.1,311.4 370,299.3 370,282.4 L370,226.4 C369.9,199.2 357.8,184.4 329,184.4 Z" id="Path"></path>
                <path d="M309,279.7 L309,228.7 C309,222.8 309.6,218.2 310.9,214.6 C303.4,217 299.9,223.6 299.9,237.8 L299.9,279.6 C299.9,296.5 304.8,302.5 315.3,303.7 C317,303.5 318.5,303.2 319.9,302.7 C312.4,300.4 309,293.9 309,279.7 Z" id="Path"></path>
                <polygon id="Path" points="127.2 15.9 118 15.9 118 25.1 118 153.9 118 153.9 127.2 153.9"></polygon>
                <polygon id="Path" points="38.6 312 38.6 312 38.6 323.2 47.7 323.2 47.7 302.9 38.6 302.9"></polygon>
                <polygon id="Path" points="0.3 194.4 0.3 194.4 0.3 302.9 9.5 302.9 9.5 185.2 0.3 185.2"></polygon>
                <path d="M240.7,249.9 C240.1,250.8 239.4,251.7 238.6,252.5 C245.5,256.2 248.4,262.7 248.4,271.5 L248.4,280.7 L248.4,280.7 L248.4,304.2 C248.4,310.1 247.5,315.1 245.5,319.1 C254,314.7 257.6,306.7 257.6,295 L257.6,271.5 C257.6,259.9 252.8,252.5 240.7,249.9 Z" id="Path"></path>
                <path d="M243.2,230.4 L243.2,230.4 L243.2,239.6 C243.2,242.3 242.9,244.6 242.1,246.8 C249.4,244 252.3,238.3 252.3,230.5 L252.3,210.7 C252.3,193.1 244.2,185.3 222.3,185.3 L213.1,185.3 C234.9,185.3 243.1,193.1 243.1,210.7 L243.2,230.4 L243.2,230.4 Z" id="Path"></path>
                <path d="M198.4,241.9 L203.1,241.9 C204.8,241.9 206.3,241.8 207.6,241.4 L207.6,213 L198.4,213 L198.4,241.9 Z" id="Path"></path>
                <path d="M198.4,304.4 L204.5,304.4 C205.6,304.4 206.6,304.4 207.6,304.3 L207.6,269.2 L198.4,269.2 L198.4,304.4 L198.4,304.4 Z" id="Path"></path>
                <rect id="Rectangle" x="317.5" y="101.7" width="9.2" height="31.8"></rect>
                <polygon id="Path" points="360.7 142.8 360.7 153.9 360.7 153.9 369.9 153.9 369.9 133.6 360.7 133.6"></polygon>
                <rect id="Rectangle" x="317.5" y="45.3" width="9.2" height="27.6"></rect>
                <polygon id="Path" points="359.4 92.5 368.5 92.5 368.5 72.9 359.4 72.9 359.4 82.1 359.4 82.1"></polygon>
                <polygon id="Path" points="360.7 15.9 360.7 25.1 360.7 36.1 369.9 36.1 369.9 15.9"></polygon>
                <polygon id="Path" points="346.1 0.7 336.3 9.9 342.9 9.9 341.5 11.2 344 11.2 355.2 0.7 333 0.7 333 0.7 337 0.7"></polygon>
            </g>
            <polygon id="Path" fill="#002C49" fill-rule="nonzero" points="366.3 9.9 364.9 11.2 371.5 11.2 372.9 9.9"></polygon>
            <g fill="#FF0000" fill-rule="nonzero">
                <rect id="Rectangle" x="0" y="15.9" width="9.2" height="138"></rect>
                <path d="M237.5,72.1 C236.2,72.5 234.8,72.6 233,72.6 L237.5,72.6 L242.2,72.6 C249.1,72.6 252.4,70.2 252.4,60.3 L252.4,60.3 L252.4,46.5 C252.4,36.9 249.2,34.7 242.3,34.6 L242.3,34.6 L233,34.6 C234.7,34.6 236.2,34.7 237.5,35.1 C240.9,36 242.7,38.4 243.1,43.8 C243.2,44.6 243.2,45.5 243.2,46.5 L243.2,60.4 C243.2,67.7 241.2,70.9 237.5,72.1 Z" id="Path"></path>
                <rect id="Rectangle" x="198.3" y="15.9" width="9.2" height="138"></rect>
                <path d="M237.5,90.8 L234.4,90.8 C235.5,90.8 236.4,90.8 237.5,90.8 C243.8,91.4 247.2,93.7 248,100.2 C248.2,101.4 248.2,102.7 248.2,104.1 L248.2,120.7 C248.2,130.9 244.9,134.3 237.4,135 C236.4,135.1 235.4,135.1 234.3,135.1 L237.4,135.1 L243.5,135.1 C253.2,135.1 257.4,132.2 257.4,120.7 L257.4,113.2 L257.4,104.1 C257.4,93.3 253.2,90.7 243.5,90.7 L237.5,90.7 L237.5,90.8 L237.5,90.8 Z" id="Path"></path>
                <polygon id="Path" points="88.9 323.2 98.2 323.2 98.2 323.2 120.8 194.4 122.4 185.2 113.3 185.2"></polygon>
                <polygon id="Path" points="147.5 268 142.4 237.5 137.7 210.3 136.1 219.7 133.2 237.5 137.7 264.7 138.3 268 144.3 268"></polygon>
                <polygon id="Path" points="141.4 286.4 142.9 295.6 147.5 323.2 153.5 323.2 156.6 323.2 150.4 286.4"></polygon>
                <path d="M345.2,184.5 C343.7,184.4 342.2,184.3 340.6,184.3 C311.8,184.3 299.8,199 299.8,226.1 L299.8,282.1 C299.8,299.2 304.6,311.4 315.2,318 C321.5,321.9 329.9,323.9 340.6,323.9 C342.2,323.9 343.7,323.8 345.1,323.7 C319.7,322.2 308.9,307.8 308.9,282.1 L308.9,282.1 L308.9,226.1 C308.9,200.5 319.8,186 345.2,184.5 Z" id="Path"></path>
                <path d="M354.5,204.7 C353,204.5 351.4,204.4 349.7,204.4 C348.1,204.4 346.6,204.5 345.1,204.6 C346.8,204.8 348.3,205.1 349.7,205.6 C354,207 356.9,209.8 358.6,214.7 C359.8,218.2 360.4,222.8 360.4,228.8 L360.4,279.8 C360.4,294 357,300.5 349.6,303 C348.2,303.5 346.7,303.8 345,304 C346.4,304.2 347.9,304.2 349.6,304.2 C351.2,304.2 352.8,304.1 354.2,304 C364.8,302.8 369.6,296.7 369.6,279.9 L369.6,238 L369.6,228.9 C369.7,212 365,205.9 354.5,204.7 Z" id="Path"></path>
                <rect id="Rectangle" x="118" y="15.9" width="9.2" height="138"></rect>
                <polygon id="Path" points="0.3 323.2 9.5 323.2 9.5 323.2 9.5 194.4 9.5 185.2 0.3 185.2"></polygon>
                <path d="M237.6,241.5 C236.3,241.9 234.9,242 233.1,242 L237.6,242 L242.3,242 C249.2,242 252.5,239.6 252.5,229.6 L252.5,224.9 L252.5,215.7 C252.5,206.1 249.3,203.9 242.4,203.8 L242.4,203.8 L233.2,203.8 C234.9,203.8 236.4,203.9 237.7,204.3 C241.1,205.2 242.9,207.6 243.3,213 C243.4,213.8 243.4,214.7 243.4,215.7 L243.4,229.6 C243.2,237.1 241.5,240.3 237.6,241.5 Z" id="Path"></path>
                <polygon id="Path" points="198.4 323.2 207.6 323.2 207.6 323.2 207.6 194.4 207.6 185.2 198.4 185.2"></polygon>
                <path d="M243.6,260 L243.6,260 L234.4,260 C235.5,260 236.5,260 237.5,260.1 C243.8,260.6 247.2,262.9 248,269.4 C248.2,270.6 248.2,271.9 248.2,273.3 L248.2,289.9 C248.2,300.1 244.9,303.5 237.4,304.2 C236.4,304.3 235.4,304.3 234.3,304.3 L237.4,304.3 L243.5,304.3 C253.1,304.3 257.4,301.4 257.4,289.9 L257.4,289.9 L257.4,273.3 C257.5,262.7 253.2,260 243.6,260 Z" id="Path"></path>
                <polygon id="Path" points="326.7 153.9 326.7 25.1 326.7 15.9 317.5 15.9 317.5 153.9"></polygon>
                <polygon id="Path" points="350.3 11.2 350.8 9.9 353.9 0.7 344.7 0.7 341.1 11.2 350.2 11.2"></polygon>
            </g>
            <g transform="translate(9.000000, 0.000000)" fill="#FFFFFF" fill-rule="nonzero">
                <polygon id="Path" points="50.1 153.9 59.3 153.9 59.3 153.9 59.3 133.6 59.3 133.6 50.1 133.6 30.2 133.6 21 133.6 21 15.9 21 15.9 11.8 15.9 0.2 15.9 0.2 153.9 0.2 153.9 9.3 153.9"></polygon>
                <path d="M225.4,153.9 L234.6,153.9 C259.8,153.9 269.3,144.8 269.3,125.6 L269.3,111.2 L269.3,102 C269.3,93.1 266.4,86.7 259.5,83 C255.6,80.9 250.4,79.6 243.8,79.3 C258.5,78.5 264.1,71.8 264.1,61 L264.1,50.3 L264.1,41.3 C264.1,23.7 256,15.9 234.2,15.9 L234.2,15.9 L225,15.9 L198.4,15.9 L198.4,153.9 L198.4,153.9 L207.6,153.9 L225.5,153.9 L225.5,154.1 L225.4,154.1 L225.4,153.9 Z M243.3,46.4 L243.3,60.3 L243.3,60.3 C243.3,70.3 240.1,72.6 233.1,72.6 L228.4,72.6 L224,72.6 L219.3,72.6 L219.3,43.6 L219.3,34.4 L224,34.4 L233.2,34.4 L233.2,34.4 C240.1,34.5 243.3,36.8 243.3,46.4 Z M219.3,99.9 L219.3,90.7 L225.4,90.7 L228.5,90.7 L234.6,90.7 C244.3,90.7 248.5,93.2 248.5,104.1 L248.5,113.2 L248.5,120.7 C248.5,132.2 244.3,135.1 234.6,135.1 L228.5,135.1 L225.4,135.1 L219.3,135.1 L219.3,99.9 Z" id="Shape"></path>
                <path d="M134.9,185.2 L122.6,185.2 L113.4,185.2 L111.8,194.4 L89.2,323.2 L98.4,323.2 L100.7,323.2 L109.7,323.2 L109.8,323.2 L114.4,295.6 L115.9,286.4 L125.1,286.4 L132.3,286.4 L141.5,286.4 L147.6,323.1 L156.8,323.1 L159.1,323.1 L165,323.1 L168.3,323.1 L144.1,185.1 L134.9,185.2 L134.9,185.2 Z M138.5,268 L135.3,268 L129.3,268 L128.2,268 L119,268 L124.2,237.5 L127.2,219.7 L128.8,210.3 L133.3,237.5 L138.5,268 Z" id="Shape"></path>
                <path d="M345.8,184.5 C344.2,184.4 342.5,184.3 340.8,184.3 C339.2,184.3 337.7,184.4 336.2,184.5 C310.7,186 300,200.6 300,226.2 L300,282.2 L300,282.2 C300,307.9 310.7,322.3 336.2,323.8 C337.7,323.9 339.2,324 340.8,324 C342.4,324 343.9,323.9 345.3,323.8 C370.5,322.3 381.7,307.7 381.7,282.1 L381.7,235.2 L381.7,226 C381.7,200.8 370.9,186.1 345.8,184.5 Z M345.3,303.9 C343.9,304.1 342.3,304.1 340.7,304.1 C339.1,304.1 337.6,304 336.1,303.9 C325.6,302.7 320.7,296.6 320.7,279.8 L320.7,238 L320.7,228.8 C320.7,212.1 325.6,205.9 336.1,204.7 C337.5,204.5 339,204.5 340.7,204.5 C342.4,204.5 344,204.6 345.5,204.8 C356,206.1 360.7,212.3 360.7,228.9 L360.7,238 L360.7,279.9 C360.7,296.5 356,302.7 345.3,303.9 Z" id="Shape"></path>
                <polygon id="Path" points="127.4 153.9 129.9 153.9 139 153.9 139 25.1 139 15.9 139 15.9 129.9 15.9 118.2 15.9 118.2 153.9 118.2 153.9"></polygon>
                <polygon id="Path" points="30.5 302.9 21.3 302.9 21.3 302.9 21.3 194.4 21.3 185.2 12.1 185.2 9.6 185.2 0.5 185.2 0.5 194.4 0.5 323.2 9.6 323.2 50.3 323.2 59.6 323.2 59.6 312 59.6 302.9 59.6 302.9 50.3 302.9"></polygon>
                <path d="M259.7,252.3 C255.8,250.2 250.6,248.9 244,248.6 C258.7,247.8 264.3,241.2 264.3,230.3 L264.3,230.3 L264.3,210.5 C264.3,192.9 256.2,185.1 234.3,185.1 L225.1,185.1 L207.7,185.1 L198.5,185.1 L198.5,194.3 L198.5,323.1 L207.7,323.1 L225.6,323.1 L234.8,323.1 C260,323.1 269.5,314 269.5,294.8 L269.5,280.4 L269.5,271.2 C269.5,262.5 266.5,256.1 259.7,252.3 Z M219.4,203.9 L224.1,203.9 L233.3,203.9 L233.3,203.9 C240.2,203.9 243.4,206.1 243.4,215.8 L243.4,225 L243.4,229.7 C243.4,239.7 240.2,242.1 233.2,242.1 L228.5,242.1 L224,242.1 L219.3,242.1 L219.3,242.1 L219.3,203.9 L219.4,203.9 L219.4,203.9 Z M219.4,260 L225.5,260 L234.7,260 L234.8,260 C244.4,260 248.6,262.6 248.6,273.4 L248.6,290 L248.6,290 C248.6,301.5 244.4,304.4 234.7,304.4 L228.7,304.4 L225.6,304.4 L219.5,304.4 L219.5,304.4 L219.5,260 L219.4,260 Z" id="Shape"></path>
                <polygon id="Path" points="372.6 15.9 357.4 15.9 339.7 15.9 317.7 15.9 317.7 25.1 317.7 153.9 326.9 153.9 372.6 153.9 381.7 153.9 381.7 142.8 381.7 133.6 381.7 133.6 372.6 133.6 347.7 133.6 338.5 133.6 338.5 133.6 338.5 92.5 371.2 92.5 380.4 92.5 380.4 82.1 380.4 72.9 380.4 72.9 371.2 72.9 347.7 72.9 338.5 72.9 338.5 72.9 338.5 36.1 347.7 36.1 372.6 36.1 381.7 36.1 381.7 25.1 381.7 15.9 381.7 15.9"></polygon>
                <polygon id="Path" points="350.5 11.2 355.9 11.2 357.3 9.9 367.1 0.7 358 0.7 354 0.7 344.9 0.7 341.8 9.9 341.3 11.2 346.8 11.2"></polygon>
            </g>
        </g>
        <g id="Group" transform="translate(0.000000, 33.000000)">
            <path d="M243.2,60.3 L243.2,46.4 C243.2,45.4 243.2,44.6 243.1,43.7 C242.8,43.7 242.5,43.7 242.2,43.7 L237.5,43.7 L237.5,72.1 C241.2,70.9 243.2,67.7 243.2,60.3 Z" id="Path"></path>
            <path d="M339,279.7 C339,293.9 342.5,300.4 349.8,302.9 C357.2,300.5 360.6,293.9 360.6,279.7 L360.6,228.7 C360.6,222.8 360,218.2 358.8,214.6 C356.3,213.8 353.3,213.5 349.8,213.5 C346.4,213.5 343.4,213.8 340.9,214.7 C339.6,218.2 339,222.8 339,228.8 L339,279.7 L339,279.7 Z" id="Path"></path>
            <path d="M243.2,229.5 L243.2,215.6 C243.2,214.6 243.2,213.8 243.1,212.9 C242.8,212.9 242.5,212.9 242.2,212.9 L237.5,212.9 L237.5,241.3 C241.5,240.3 243.2,237.1 243.2,229.5 Z" id="Path"></path>
            <polygon id="Path" points="138.3 268 137.7 264.7 137.2 268"></polygon>
            <path d="M248.1,120.7 L248.1,104.1 C248.1,102.6 248,101.3 247.9,100.2 C246.6,100 245.1,99.9 243.4,99.9 L237.3,99.9 L237.3,135 C244.8,134.4 248.1,130.8 248.1,120.7 Z" id="Path"></path>
            <path d="M248,269.5 C247.1,263 243.8,260.7 237.5,260.2 L237.5,269.3 L243.6,269.3 C245.2,269.2 246.8,269.3 248,269.5 Z" id="Path" fill="#354DFC" fill-rule="nonzero"></path>
            <g transform="translate(9.000000, 11.000000)" fill="#354DFC" fill-rule="nonzero">
                <polygon id="Path" points="9.3 142.9 0.2 142.9 0.2 152.1 59.3 152.1 59.3 142.9"></polygon>
                <path d="M261.7,69.5 C262.3,68.6 262.8,67.5 263.1,66.5 C260.4,67.6 257,68.2 253,68.4 C256.1,68.6 259,68.9 261.7,69.5 Z" id="Path"></path>
                <path d="M207.6,142.9 L207.6,142.9 L198.4,142.9 L198.4,152.1 L234.6,152.1 C252,152.1 261.9,147.7 266.4,138.7 C261,141.5 253.6,142.9 243.8,142.9 L207.6,142.9 L207.6,142.9 Z" id="Path"></path>
                <path d="M239,89.1 C238.1,82.6 234.8,80.3 228.5,79.8 L228.5,88.9 L234.6,88.9 C236.2,88.9 237.7,89 239,89.1 Z" id="Path"></path>
                <path d="M234.1,32.7 C233.7,27.3 231.9,24.9 228.5,24 L228.5,32.7 L233.2,32.7 C233.4,32.7 233.8,32.7 234.1,32.7 Z" id="Path"></path>
                <polygon id="Path" points="156.7 312.2 147.6 312.2 144.5 312.2 146 321.3 166.6 321.3 165 312.2 159 312.2"></polygon>
                <polygon id="Path" points="125.1 275.4 123.6 284.6 133.9 284.6 132.4 275.4"></polygon>
                <polygon id="Path" points="98.3 312.2 89.2 312.2 89.2 312.2 87.6 321.3 108.2 321.3 109.7 312.2 100.7 312.2"></polygon>
                <path d="M349.7,203.7 C348,198.9 345,196 340.8,194.6 C336.5,196 333.6,198.9 331.8,203.7 C334.3,202.9 337.3,202.5 340.7,202.5 C344.2,202.6 347.2,202.9 349.7,203.7 Z" id="Path"></path>
                <path d="M345.3,312.9 C343.8,313 342.3,313.1 340.8,313.1 C339.2,313.1 337.7,313 336.2,312.9 C334.7,313 333.2,313.1 331.7,313.1 C321,313.1 312.7,311.1 306.3,307.2 C312.6,317.1 323.7,322.3 340.8,322.3 C357.8,322.3 369.1,317 375.5,307 C369.1,311 360.7,313.1 350,313.1 C348.4,313 346.8,313 345.3,312.9 Z" id="Path"></path>
                <polygon id="Path" points="127.4 142.9 118.2 142.9 118.2 152.1 139 152.1 139 142.9"></polygon>
                <polygon id="Path" points="50.3 312.2 9.6 312.2 0.5 312.2 0.5 312.2 0.5 321.3 59.6 321.3 59.6 312.2 59.6 312.2"></polygon>
                <path d="M234.2,202.1 C233.8,196.7 232,194.3 228.6,193.4 L228.6,202.1 L233.3,202.1 C233.5,202.1 233.8,202.1 234.2,202.1 Z" id="Path"></path>
                <path d="M234.8,312.2 L225.6,312.2 L207.7,312.2 L198.5,312.2 L198.5,312.2 L198.5,321.4 L234.7,321.4 C252.1,321.4 262,317 266.5,308 C261.1,310.8 253.7,312.2 243.9,312.2 L234.8,312.2 L234.8,312.2 Z" id="Path"></path>
                <path d="M261.7,238.9 C262.3,238 262.7,236.9 263.1,235.9 C260.4,237 257,237.6 253,237.8 C256.4,237.8 259.3,238.2 261.7,238.9 Z" id="Path"></path>
                <polygon id="Path" points="347.7 25.1 347.7 34.3 381.7 34.3 381.7 25.1 372.6 25.1"></polygon>
                <rect id="Rectangle" x="347.7" y="81.5" width="32.7" height="9.2"></rect>
                <polygon id="Path" points="326.9 142.9 317.7 142.9 317.7 142.9 317.7 152.1 381.7 152.1 381.7 142.9"></polygon>
                <polygon id="Path" points="362.5 0.2 355.9 0.2 355.9 0.2 346.8 0.2 341.3 0.2 341.2 0.2 339.7 4.9 357.4 4.9"></polygon>
            </g>
            <polygon id="Path" fill="#002C49" fill-rule="nonzero" points="59.1 153.9 18.3 153.9 18.3 153.9 68.3 153.9 68.3 153.9"></polygon>
            <path d="M237.5,43.7 L237.5,35 C236.2,34.7 234.8,34.5 233,34.5 L228.3,34.5 L228.3,43.7 L237.5,43.7 Z" id="Path" fill="#002C49" fill-rule="nonzero"></path>
            <path d="M237.5,99.9 L237.5,90.8 C236.5,90.7 235.5,90.7 234.4,90.7 L228.3,90.7 L228.3,99.9 L237.5,99.9 L237.5,99.9 Z" id="Path" fill="#002C49" fill-rule="nonzero"></path>
            <path d="M278.3,125.6 C278.3,144.7 268.8,153.9 243.6,153.9 L234.4,153.9 L216.5,153.9 L216.5,153.9 L252.7,153.9 C262.5,153.9 269.9,152.5 275.3,149.7 C277.3,145.7 278.2,140.7 278.2,134.8 L278.2,125.6 L278.3,125.6 L278.3,125.6 Z" id="Path" fill="#002C49" fill-rule="nonzero"></path>
            <path d="M273.1,50.5 L273.1,50.5 L273.1,61.1 C273.1,71.9 267.5,78.5 252.8,79.4 C259.5,79.7 264.6,81 268.5,83.1 C269.3,82.3 270,81.5 270.6,80.5 C268,79.9 265.2,79.6 261.9,79.4 C265.9,79.2 269.3,78.5 272,77.5 C272.7,75.4 273.1,73 273.1,70.3 L273.1,50.5 L273.1,50.5 Z" id="Path" fill="#002C49" fill-rule="nonzero"></path>
            <polygon id="Path" fill="#002C49" fill-rule="nonzero" points="124.9 286.4 123.3 295.6 132.6 295.6 134.1 286.4"></polygon>
            <path d="M329.9,228.7 L329.9,237.9 C329.9,223.7 333.4,217.1 340.9,214.7 C342.6,209.9 345.6,207 349.9,205.6 C348.5,205.1 347,204.8 345.3,204.6 C334.7,205.9 329.9,212 329.9,228.7 Z" id="Path" fill="#002C49" fill-rule="nonzero"></path>
            <path d="M390.7,282.3 C390.7,307.9 379.5,322.4 354.3,324 C355.8,324.1 357.3,324.2 358.9,324.2 C369.6,324.2 378,322.1 384.4,318.1 C388.7,311.4 390.7,302.5 390.7,291.6 L390.7,282.3 L390.7,282.3 Z" id="Path" fill="#002C49" fill-rule="nonzero"></path>
            <polygon id="Path" fill="#002C49" fill-rule="nonzero" points="138.9 153.9 136.4 153.9 136.4 153.9 148 153.9 148 153.9"></polygon>
            <path d="M228.4,269.2 L237.6,269.2 L237.6,260.1 C236.6,260 235.6,260 234.5,260 L228.4,260" id="Path" fill="#002C49" fill-rule="nonzero"></path>
            <path d="M237.6,213.1 L237.6,204.4 C236.3,204.1 234.9,203.9 233.1,203.9 L228.4,203.9 L228.4,242 L228.4,242 L228.4,213.1 L237.6,213.1 L237.6,213.1 Z" id="Path" fill="#002C49" fill-rule="nonzero"></path>
            <path d="M278.5,294.9 C278.5,314 269,323.2 243.8,323.2 L253,323.2 C262.8,323.2 270.2,321.8 275.6,319 C277.6,315 278.5,310 278.5,304.1 L278.5,294.9 L278.5,294.9 Z" id="Path" fill="#002C49" fill-rule="nonzero"></path>
            <path d="M273.2,230.4 C273.2,241.2 267.6,247.8 252.9,248.7 C259.6,249 264.7,250.3 268.6,252.4 C269.4,251.6 270.1,250.8 270.7,249.8 C268.1,249.2 265.3,248.9 262,248.7 C266,248.5 269.4,247.8 272.1,246.8 C272.8,244.7 273.2,242.3 273.2,239.6 L273.2,230.4 L273.2,230.4 Z" id="Path" fill="#002C49" fill-rule="nonzero"></path>
            <polygon id="Path" fill="#002C49" fill-rule="nonzero" points="381.6 153.9 335.9 153.9 335.9 153.9 390.7 153.9 390.7 153.9"></polygon>
            <rect id="Rectangle" fill="#002C49" fill-rule="nonzero" x="347.5" y="36.1" width="9.2" height="9.2"></rect>
            <rect id="Rectangle" fill="#002C49" fill-rule="nonzero" x="347.5" y="92.5" width="9.2" height="9.2"></rect>
            <g transform="translate(30.000000, 0.000000)" fill="#00FF8B" fill-rule="nonzero">
                <rect id="Rectangle" x="0" y="15.9" width="9.2" height="117.7"></rect>
                <polygon id="Path" points="47.4 133.6 38.3 133.6 38.3 153.9 38.3 153.9 38.3 153.9 47.4 153.9"></polygon>
                <path d="M207.5,72.1 L207.5,43.7 L198.3,43.7 L198.3,72.6 L203,72.6 C204.7,72.7 206.1,72.5 207.5,72.1 Z" id="Path"></path>
                <path d="M243.1,41.3 L243.1,50.4 L243.1,50.4 L243.1,70.2 C243.1,72.8 242.8,75.2 242,77.4 C249.3,74.6 252.2,68.9 252.2,61.1 L252.2,41.3 C252.2,23.7 244.1,15.9 222.2,15.9 L213.1,15.9 C234.9,15.9 243.1,23.7 243.1,41.3 Z" id="Path"></path>
                <path d="M207.5,134.9 L207.5,99.8 L198.3,99.8 L198.3,135 L204.4,135 C205.5,135.1 206.4,135.1 207.5,134.9 Z" id="Path"></path>
                <path d="M238.6,83.1 C245.5,86.8 248.4,93.3 248.4,102.1 L248.4,111.3 L248.4,125.7 L248.4,134.9 C248.4,140.8 247.5,145.8 245.5,149.8 C254,145.4 257.6,137.4 257.6,125.7 L257.6,102.2 C257.6,90.7 252.8,83.3 240.7,80.6 C240,81.5 239.4,82.3 238.6,83.1 Z" id="Path"></path>
                <polygon id="Path" points="88.9 323.2 98 323.2 102.6 295.6 93.3 295.6"></polygon>
                <polygon id="Path" points="98 268 107.2 268 107.7 264.7 103.2 237.5"></polygon>
                <polygon id="Path" points="123.1 185.2 147.2 323.2 156.4 323.2 132.2 185.2"></polygon>
                <path d="M329,184.4 C327.6,184.4 326.2,184.5 324.8,184.6 C350,186.3 360.8,200.8 360.8,226.3 L360.8,235.5 L360.8,282.4 L360.8,291.6 C360.8,302.5 358.8,311.4 354.5,318.1 C365.1,311.4 370,299.3 370,282.4 L370,226.4 C369.9,199.2 357.8,184.4 329,184.4 Z" id="Path"></path>
                <path d="M309,279.7 L309,228.7 C309,222.8 309.6,218.2 310.9,214.6 C303.4,217 299.9,223.6 299.9,237.8 L299.9,279.6 C299.9,296.5 304.8,302.5 315.3,303.7 C317,303.5 318.5,303.2 319.9,302.7 C312.4,300.4 309,293.9 309,279.7 Z" id="Path"></path>
                <polygon id="Path" points="127.2 15.9 118 15.9 118 25.1 118 153.9 118 153.9 127.2 153.9"></polygon>
                <polygon id="Path" points="38.6 312 38.6 312 38.6 323.2 47.7 323.2 47.7 302.9 38.6 302.9"></polygon>
                <polygon id="Path" points="0.3 194.4 0.3 194.4 0.3 302.9 9.5 302.9 9.5 185.2 0.3 185.2"></polygon>
                <path d="M240.7,249.9 C240.1,250.8 239.4,251.7 238.6,252.5 C245.5,256.2 248.4,262.7 248.4,271.5 L248.4,280.7 L248.4,280.7 L248.4,304.2 C248.4,310.1 247.5,315.1 245.5,319.1 C254,314.7 257.6,306.7 257.6,295 L257.6,271.5 C257.6,259.9 252.8,252.5 240.7,249.9 Z" id="Path"></path>
                <path d="M243.2,230.4 L243.2,230.4 L243.2,239.6 C243.2,242.3 242.9,244.6 242.1,246.8 C249.4,244 252.3,238.3 252.3,230.5 L252.3,210.7 C252.3,193.1 244.2,185.3 222.3,185.3 L213.1,185.3 C234.9,185.3 243.1,193.1 243.1,210.7 L243.2,230.4 L243.2,230.4 Z" id="Path"></path>
                <path d="M198.4,241.9 L203.1,241.9 C204.8,241.9 206.3,241.8 207.6,241.4 L207.6,213 L198.4,213 L198.4,241.9 Z" id="Path"></path>
                <path d="M198.4,304.4 L204.5,304.4 C205.6,304.4 206.6,304.4 207.6,304.3 L207.6,269.2 L198.4,269.2 L198.4,304.4 L198.4,304.4 Z" id="Path"></path>
                <rect id="Rectangle" x="317.5" y="101.7" width="9.2" height="31.8"></rect>
                <polygon id="Path" points="360.7 142.8 360.7 153.9 360.7 153.9 369.9 153.9 369.9 133.6 360.7 133.6"></polygon>
                <rect id="Rectangle" x="317.5" y="45.3" width="9.2" height="27.6"></rect>
                <polygon id="Path" points="359.4 92.5 368.5 92.5 368.5 72.9 359.4 72.9 359.4 82.1 359.4 82.1"></polygon>
                <polygon id="Path" points="360.7 15.9 360.7 25.1 360.7 36.1 369.9 36.1 369.9 15.9"></polygon>
                <polygon id="Path" points="346.1 0.7 336.3 9.9 342.9 9.9 341.5 11.2 344 11.2 355.2 0.7 333 0.7 333 0.7 337 0.7"></polygon>
            </g>
            <polygon id="Path" fill="#002C49" fill-rule="nonzero" points="366.3 9.9 364.9 11.2 371.5 11.2 372.9 9.9"></polygon>
            <g fill="#FF0000" fill-rule="nonzero">
                <rect id="Rectangle" x="0" y="15.9" width="9.2" height="138"></rect>
                <path d="M237.5,72.1 C236.2,72.5 234.8,72.6 233,72.6 L237.5,72.6 L242.2,72.6 C249.1,72.6 252.4,70.2 252.4,60.3 L252.4,60.3 L252.4,46.5 C252.4,36.9 249.2,34.7 242.3,34.6 L242.3,34.6 L233,34.6 C234.7,34.6 236.2,34.7 237.5,35.1 C240.9,36 242.7,38.4 243.1,43.8 C243.2,44.6 243.2,45.5 243.2,46.5 L243.2,60.4 C243.2,67.7 241.2,70.9 237.5,72.1 Z" id="Path"></path>
                <rect id="Rectangle" x="198.3" y="15.9" width="9.2" height="138"></rect>
                <path d="M237.5,90.8 L234.4,90.8 C235.5,90.8 236.4,90.8 237.5,90.8 C243.8,91.4 247.2,93.7 248,100.2 C248.2,101.4 248.2,102.7 248.2,104.1 L248.2,120.7 C248.2,130.9 244.9,134.3 237.4,135 C236.4,135.1 235.4,135.1 234.3,135.1 L237.4,135.1 L243.5,135.1 C253.2,135.1 257.4,132.2 257.4,120.7 L257.4,113.2 L257.4,104.1 C257.4,93.3 253.2,90.7 243.5,90.7 L237.5,90.7 L237.5,90.8 L237.5,90.8 Z" id="Path"></path>
                <polygon id="Path" points="88.9 323.2 98.2 323.2 98.2 323.2 120.8 194.4 122.4 185.2 113.3 185.2"></polygon>
                <polygon id="Path" points="147.5 268 142.4 237.5 137.7 210.3 136.1 219.7 133.2 237.5 137.7 264.7 138.3 268 144.3 268"></polygon>
                <polygon id="Path" points="141.4 286.4 142.9 295.6 147.5 323.2 153.5 323.2 156.6 323.2 150.4 286.4"></polygon>
                <path d="M345.2,184.5 C343.7,184.4 342.2,184.3 340.6,184.3 C311.8,184.3 299.8,199 299.8,226.1 L299.8,282.1 C299.8,299.2 304.6,311.4 315.2,318 C321.5,321.9 329.9,323.9 340.6,323.9 C342.2,323.9 343.7,323.8 345.1,323.7 C319.7,322.2 308.9,307.8 308.9,282.1 L308.9,282.1 L308.9,226.1 C308.9,200.5 319.8,186 345.2,184.5 Z" id="Path"></path>
                <path d="M354.5,204.7 C353,204.5 351.4,204.4 349.7,204.4 C348.1,204.4 346.6,204.5 345.1,204.6 C346.8,204.8 348.3,205.1 349.7,205.6 C354,207 356.9,209.8 358.6,214.7 C359.8,218.2 360.4,222.8 360.4,228.8 L360.4,279.8 C360.4,294 357,300.5 349.6,303 C348.2,303.5 346.7,303.8 345,304 C346.4,304.2 347.9,304.2 349.6,304.2 C351.2,304.2 352.8,304.1 354.2,304 C364.8,302.8 369.6,296.7 369.6,279.9 L369.6,238 L369.6,228.9 C369.7,212 365,205.9 354.5,204.7 Z" id="Path"></path>
                <rect id="Rectangle" x="118" y="15.9" width="9.2" height="138"></rect>
                <polygon id="Path" points="0.3 323.2 9.5 323.2 9.5 323.2 9.5 194.4 9.5 185.2 0.3 185.2"></polygon>
                <path d="M237.6,241.5 C236.3,241.9 234.9,242 233.1,242 L237.6,242 L242.3,242 C249.2,242 252.5,239.6 252.5,229.6 L252.5,224.9 L252.5,215.7 C252.5,206.1 249.3,203.9 242.4,203.8 L242.4,203.8 L233.2,203.8 C234.9,203.8 236.4,203.9 237.7,204.3 C241.1,205.2 242.9,207.6 243.3,213 C243.4,213.8 243.4,214.7 243.4,215.7 L243.4,229.6 C243.2,237.1 241.5,240.3 237.6,241.5 Z" id="Path"></path>
                <polygon id="Path" points="198.4 323.2 207.6 323.2 207.6 323.2 207.6 194.4 207.6 185.2 198.4 185.2"></polygon>
                <path d="M243.6,260 L243.6,260 L234.4,260 C235.5,260 236.5,260 237.5,260.1 C243.8,260.6 247.2,262.9 248,269.4 C248.2,270.6 248.2,271.9 248.2,273.3 L248.2,289.9 C248.2,300.1 244.9,303.5 237.4,304.2 C236.4,304.3 235.4,304.3 234.3,304.3 L237.4,304.3 L243.5,304.3 C253.1,304.3 257.4,301.4 257.4,289.9 L257.4,289.9 L257.4,273.3 C257.5,262.7 253.2,260 243.6,260 Z" id="Path"></path>
                <polygon id="Path" points="326.7 153.9 326.7 25.1 326.7 15.9 317.5 15.9 317.5 153.9"></polygon>
                <polygon id="Path" points="350.3 11.2 350.8 9.9 353.9 0.7 344.7 0.7 341.1 11.2 350.2 11.2"></polygon>
            </g>
            <g transform="translate(9.000000, 0.000000)" fill="#FFFFFF" fill-rule="nonzero">
                <polygon id="Path" points="50.1 153.9 59.3 153.9 59.3 153.9 59.3 133.6 59.3 133.6 50.1 133.6 30.2 133.6 21 133.6 21 15.9 21 15.9 11.8 15.9 0.2 15.9 0.2 153.9 0.2 153.9 9.3 153.9"></polygon>
                <path d="M225.4,153.9 L234.6,153.9 C259.8,153.9 269.3,144.8 269.3,125.6 L269.3,111.2 L269.3,102 C269.3,93.1 266.4,86.7 259.5,83 C255.6,80.9 250.4,79.6 243.8,79.3 C258.5,78.5 264.1,71.8 264.1,61 L264.1,50.3 L264.1,41.3 C264.1,23.7 256,15.9 234.2,15.9 L234.2,15.9 L225,15.9 L198.4,15.9 L198.4,153.9 L198.4,153.9 L207.6,153.9 L225.5,153.9 L225.5,154.1 L225.4,154.1 L225.4,153.9 Z M243.3,46.4 L243.3,60.3 L243.3,60.3 C243.3,70.3 240.1,72.6 233.1,72.6 L228.4,72.6 L224,72.6 L219.3,72.6 L219.3,43.6 L219.3,34.4 L224,34.4 L233.2,34.4 L233.2,34.4 C240.1,34.5 243.3,36.8 243.3,46.4 Z M219.3,99.9 L219.3,90.7 L225.4,90.7 L228.5,90.7 L234.6,90.7 C244.3,90.7 248.5,93.2 248.5,104.1 L248.5,113.2 L248.5,120.7 C248.5,132.2 244.3,135.1 234.6,135.1 L228.5,135.1 L225.4,135.1 L219.3,135.1 L219.3,99.9 Z" id="Shape"></path>
                <path d="M134.9,185.2 L122.6,185.2 L113.4,185.2 L111.8,194.4 L89.2,323.2 L98.4,323.2 L100.7,323.2 L109.7,323.2 L109.8,323.2 L114.4,295.6 L115.9,286.4 L125.1,286.4 L132.3,286.4 L141.5,286.4 L147.6,323.1 L156.8,323.1 L159.1,323.1 L165,323.1 L168.3,323.1 L144.1,185.1 L134.9,185.2 L134.9,185.2 Z M138.5,268 L135.3,268 L129.3,268 L128.2,268 L119,268 L124.2,237.5 L127.2,219.7 L128.8,210.3 L133.3,237.5 L138.5,268 Z" id="Shape"></path>
                <path d="M345.8,184.5 C344.2,184.4 342.5,184.3 340.8,184.3 C339.2,184.3 337.7,184.4 336.2,184.5 C310.7,186 300,200.6 300,226.2 L300,282.2 L300,282.2 C300,307.9 310.7,322.3 336.2,323.8 C337.7,323.9 339.2,324 340.8,324 C342.4,324 343.9,323.9 345.3,323.8 C370.5,322.3 381.7,307.7 381.7,282.1 L381.7,235.2 L381.7,226 C381.7,200.8 370.9,186.1 345.8,184.5 Z M345.3,303.9 C343.9,304.1 342.3,304.1 340.7,304.1 C339.1,304.1 337.6,304 336.1,303.9 C325.6,302.7 320.7,296.6 320.7,279.8 L320.7,238 L320.7,228.8 C320.7,212.1 325.6,205.9 336.1,204.7 C337.5,204.5 339,204.5 340.7,204.5 C342.4,204.5 344,204.6 345.5,204.8 C356,206.1 360.7,212.3 360.7,228.9 L360.7,238 L360.7,279.9 C360.7,296.5 356,302.7 345.3,303.9 Z" id="Shape"></path>
                <polygon id="Path" points="127.4 153.9 129.9 153.9 139 153.9 139 25.1 139 15.9 139 15.9 129.9 15.9 118.2 15.9 118.2 153.9 118.2 153.9"></polygon>
                <polygon id="Path" points="30.5 302.9 21.3 302.9 21.3 302.9 21.3 194.4 21.3 185.2 12.1 185.2 9.6 185.2 0.5 185.2 0.5 194.4 0.5 323.2 9.6 323.2 50.3 323.2 59.6 323.2 59.6 312 59.6 302.9 59.6 302.9 50.3 302.9"></polygon>
                <path d="M259.7,252.3 C255.8,250.2 250.6,248.9 244,248.6 C258.7,247.8 264.3,241.2 264.3,230.3 L264.3,230.3 L264.3,210.5 C264.3,192.9 256.2,185.1 234.3,185.1 L225.1,185.1 L207.7,185.1 L198.5,185.1 L198.5,194.3 L198.5,323.1 L207.7,323.1 L225.6,323.1 L234.8,323.1 C260,323.1 269.5,314 269.5,294.8 L269.5,280.4 L269.5,271.2 C269.5,262.5 266.5,256.1 259.7,252.3 Z M219.4,203.9 L224.1,203.9 L233.3,203.9 L233.3,203.9 C240.2,203.9 243.4,206.1 243.4,215.8 L243.4,225 L243.4,229.7 C243.4,239.7 240.2,242.1 233.2,242.1 L228.5,242.1 L224,242.1 L219.3,242.1 L219.3,242.1 L219.3,203.9 L219.4,203.9 L219.4,203.9 Z M219.4,260 L225.5,260 L234.7,260 L234.8,260 C244.4,260 248.6,262.6 248.6,273.4 L248.6,290 L248.6,290 C248.6,301.5 244.4,304.4 234.7,304.4 L228.7,304.4 L225.6,304.4 L219.5,304.4 L219.5,304.4 L219.5,260 L219.4,260 Z" id="Shape"></path>
                <polygon id="Path" points="372.6 15.9 357.4 15.9 339.7 15.9 317.7 15.9 317.7 25.1 317.7 153.9 326.9 153.9 372.6 153.9 381.7 153.9 381.7 142.8 381.7 133.6 381.7 133.6 372.6 133.6 347.7 133.6 338.5 133.6 338.5 133.6 338.5 92.5 371.2 92.5 380.4 92.5 380.4 82.1 380.4 72.9 380.4 72.9 371.2 72.9 347.7 72.9 338.5 72.9 338.5 72.9 338.5 36.1 347.7 36.1 372.6 36.1 381.7 36.1 381.7 25.1 381.7 15.9 381.7 15.9"></polygon>
                <polygon id="Path" points="350.5 11.2 355.9 11.2 357.3 9.9 367.1 0.7 358 0.7 354 0.7 344.9 0.7 341.8 9.9 341.3 11.2 346.8 11.2"></polygon>
            </g>
        </g>
    </g>
</svg>