<?xml version="1.0" encoding="UTF-8"?>
<svg width="32px" height="32px" viewBox="0 0 32 32" version="1.1" xmlns="http://www.w3.org/2000/svg" xmlns:xlink="http://www.w3.org/1999/xlink">
    <!-- Generator: Sketch 53.2 (72643) - https://sketchapp.com -->
    <title>magnifying-glass-icon_32</title>
    <desc>Created with Sketch.</desc>
    <g id="magnifying-glass-icon_32" stroke="none" stroke-width="1" fill="none" fill-rule="evenodd">
        <rect id="background" x="0" y="0" width="32" height="32"></rect>
        <path d="M11.6712682,21.7429453 L6,27.4142136 L4.58578644,26 L10.2570547,20.3287318 C8.84636529,18.6048612 8,16.4012702 8,14 C8,8.4771525 12.4771525,4 18,4 C23.5228475,4 28,8.4771525 28,14 C28,19.5228475 23.5228475,24 18,24 C15.5987298,24 13.3951388,23.1536347 11.6712682,21.7429453 Z M18,22 C22.418278,22 26,18.418278 26,14 C26,9.581722 22.418278,6 18,6 C13.581722,6 10,9.581722 10,14 C10,18.418278 13.581722,22 18,22 Z" id="fill-1"></path>
    </g>
</svg>