<?xml version="1.0" encoding="UTF-8"?>
<svg width="40px" height="40px" viewBox="0 0 40 40" version="1.1" xmlns="http://www.w3.org/2000/svg" xmlns:xlink="http://www.w3.org/1999/xlink">
    <!-- Generator: Sketch 53.2 (72643) - https://sketchapp.com -->
    <title>magnifying-glass-icon_40</title>
    <desc>Created with Sketch.</desc>
    <g id="magnifying-glass-icon_40" stroke="none" stroke-width="1" fill="none" fill-rule="evenodd">
        <rect id="background" x="0" y="0" width="40" height="40"></rect>
        <path d="M14.251159,27.1630546 L7,34.4142136 L5.58578644,33 L12.8369454,25.748841 C11.0671569,23.6581587 10,20.9537033 10,18 C10,11.372583 15.372583,6 22,6 C28.627417,6 34,11.372583 34,18 C34,24.627417 28.627417,30 22,30 C19.0462967,30 16.3418413,28.9328431 14.251159,27.1630546 Z M22,28 C27.5228475,28 32,23.5228475 32,18 C32,12.4771525 27.5228475,8 22,8 C16.4771525,8 12,12.4771525 12,18 C12,23.5228475 16.4771525,28 22,28 Z" id="fill-1"></path>
    </g>
</svg>