<?xml version="1.0" encoding="UTF-8"?>
<svg width="32px" height="32px" viewBox="0 0 32 32" version="1.1" xmlns="http://www.w3.org/2000/svg" xmlns:xlink="http://www.w3.org/1999/xlink">
    <!-- Generator: Sketch 49.3 (51167) - http://www.bohemiancoding.com/sketch -->
    <title>printer-icon_32</title>
    <desc>Created with Sketch.</desc>
    <defs></defs>
    <g id="printer-icon_32" stroke="none" stroke-width="1" fill="none" fill-rule="evenodd">
        <rect id="background" x="0" y="0" width="32" height="32"></rect>
        <path d="M24.6500001,11.4545455 L7.37727282,11.4545455 C5.92272737,11.4545455 4.6500001,12.6363636 4.6500001,14.1818181 L4.6500001,17.8181819 C4.6500001,19.3636364 5.92272737,20.5454545 7.37727282,20.5454545 L9.1954546,20.5454545 L9.1954546,16 L22.8318182,16 L22.8318182,20.5454545 L24.6500001,20.5454545 C26.1045456,20.5454545 27.3772728,19.3636364 27.3772728,17.8181819 L27.3772728,14.1818181 C27.3772728,12.6363636 26.1045456,11.4545455 24.6500001,11.4545455 Z M25.559091,15.0909091 L23.7409092,15.0909091 L23.7409092,13.2727273 L25.559091,13.2727273 L25.559091,15.0909091 Z M11.0136365,6 L21.0136365,6 L21.0136365,10.5454545 L11.0136365,10.5454545 L11.0136365,6 Z M11.0136365,26 L21.0136365,26 L21.0136365,16.9090909 L11.0136365,16.9090909 L11.0136365,26 Z M19.1954546,23.2727273 L16.468182,23.2727273 L16.468182,22.3636364 L19.1954546,22.3636364 L19.1954546,23.2727273 Z M13.7409092,19.6363636 L19.1954546,19.6363636 L19.1954546,20.5454545 L13.7409092,20.5454545 L13.7409092,19.6363636 Z" id="fill-1"></path>
    </g>
</svg>