<?xml version="1.0" encoding="UTF-8"?>
<svg width="32px" height="32px" viewBox="0 0 32 32" version="1.1" xmlns="http://www.w3.org/2000/svg" xmlns:xlink="http://www.w3.org/1999/xlink">
    <!-- Generator: Sketch 49.3 (51167) - http://www.bohemiancoding.com/sketch -->
    <title>twitter-logo-icon_32</title>
    <desc>Created with Sketch.</desc>
    <defs></defs>
    <g id="twitter-logo-icon_32" stroke="none" stroke-width="1" fill="none" fill-rule="evenodd">
        <rect id="background" x="0" y="0" width="32" height="32"></rect>
        <path d="M25,10.7316032 C24.3377783,11.0253634 23.6259673,11.2238137 22.8790559,11.313094 C23.6414479,10.8560722 24.2270781,10.1323816 24.5027486,9.27000094 C23.7891377,9.693271 22.9988461,10.0005313 22.1576156,10.1661324 C21.4840537,9.4483811 20.5242924,9 19.4621107,9 C17.4227077,9 15.769135,10.6533923 15.769135,12.6927963 C15.769135,12.9822366 15.8018047,13.2641172 15.8648048,13.5343878 C12.7956191,13.3803977 10.0745551,11.9101547 8.25313209,9.67590128 C7.9352516,10.221302 7.75309104,10.855623 7.75309104,11.5324248 C7.75309104,12.8136664 8.40505255,13.9439783 9.39595336,14.606199 C8.79061301,14.5870293 8.22118231,14.4208888 7.72330119,14.1443188 C7.72288138,14.1597081 7.72288138,14.1751876 7.72288138,14.1907584 C7.72288138,15.9799619 8.99584433,17.472434 10.6852365,17.8119148 C10.375366,17.8963348 10.0491155,17.9414247 9.71233407,17.9414247 C9.47437422,17.9414247 9.24307468,17.9182049 9.01753391,17.8751847 C9.48751433,19.342277 10.8512868,20.4099488 12.4673294,20.4396484 C11.2034575,21.4301903 9.61117516,22.0205917 7.88092165,22.0205917 C7.58284054,22.0205917 7.28890087,22.0030414 7,21.9689307 C8.63431286,23.0168031 10.5754358,23.628174 12.6609194,23.628174 C19.4535004,23.628174 23.1680765,18.0010957 23.1680765,13.1209267 C23.1680765,12.9608167 23.1644766,12.8016062 23.1573671,12.6431168 C23.8788074,12.1225553 24.5048487,11.4722132 24.9999402,10.7316032 L25,10.7316032 Z" id="fill-1" fill-rule="nonzero"></path>
    </g>
</svg>